<?xml version="1.0" encoding="UTF-8"?>
<!DOCTYPE svg PUBLIC "-//W3C//DTD SVG 1.1//EN" "http://www.w3.org/Graphics/SVG/1.1/DTD/svg11.dtd">
<svg xmlns="http://www.w3.org/2000/svg" version="1.1" width="500px" height="500px" style="shape-rendering:geometricPrecision; text-rendering:geometricPrecision; image-rendering:optimizeQuality; fill-rule:evenodd; clip-rule:evenodd" xmlns:xlink="http://www.w3.org/1999/xlink">
<g><path style="opacity:0.934" fill="#fefffe" d="M 77.5,171.5 C 108.835,171.333 140.168,171.5 171.5,172C 177.026,173.526 180.526,177.026 182,182.5C 182.667,191.167 182.667,199.833 182,208.5C 180.201,213.962 176.701,217.796 171.5,220C 177.195,220.761 180.695,223.927 182,229.5C 183.542,238.104 183.876,246.77 183,255.5C 180.975,263.521 175.808,268.021 167.5,269C 137.502,269.5 107.502,269.667 77.5,269.5C 77.5,236.833 77.5,204.167 77.5,171.5 Z M 97.5,185.5 C 118.464,186.06 139.464,186.893 160.5,188C 164.025,194.596 164.358,201.429 161.5,208.5C 159.78,209.955 157.78,210.788 155.5,211C 136.17,211.5 116.836,211.667 97.5,211.5C 97.5,202.833 97.5,194.167 97.5,185.5 Z M 97.5,226.5 C 118.545,226.058 139.545,226.558 160.5,228C 161.893,229.171 162.727,230.671 163,232.5C 163.915,238.944 163.581,245.277 162,251.5C 159.287,252.927 156.454,254.094 153.5,255C 134.836,255.5 116.17,255.667 97.5,255.5C 97.5,245.833 97.5,236.167 97.5,226.5 Z"/></g>
<g><path style="opacity:0.905" fill="#fefffe" d="M 280.5,171.5 C 303.085,193.252 325.251,215.585 347,238.5C 347.5,216.836 347.667,195.169 347.5,173.5C 352.5,173.5 357.5,173.5 362.5,173.5C 362.333,189.503 362.5,205.503 363,221.5C 375.315,206.864 387.149,191.864 398.5,176.5C 405.142,175.336 411.808,175.169 418.5,176C 406.103,191.393 394.103,207.059 382.5,223C 395.482,239.133 408.816,254.966 422.5,270.5C 415.858,271.664 409.192,271.831 402.5,271C 389.689,255.221 376.523,239.721 363,224.5C 362.833,240.844 362.333,257.177 361.5,273.5C 335.874,247.374 310.041,221.374 284,195.5C 283.385,193.884 282.385,192.551 281,191.5C 280.5,184.842 280.334,178.175 280.5,171.5 Z"/></g>
<g><path style="opacity:0.974" fill="#fe9900" d="M 193.5,173.5 C 198.167,173.5 202.833,173.5 207.5,173.5C 207.5,206.167 207.5,238.833 207.5,271.5C 202.833,271.5 198.167,271.5 193.5,271.5C 193.5,238.833 193.5,206.167 193.5,173.5 Z"/></g>
<g><path style="opacity:0.974" fill="#fefffe" d="M 256.5,174.5 C 261.167,174.5 265.833,174.5 270.5,174.5C 270.5,207.167 270.5,239.833 270.5,272.5C 265.833,272.5 261.167,272.5 256.5,272.5C 256.5,239.833 256.5,207.167 256.5,174.5 Z"/></g>
<g><path style="opacity:0.903" fill="#fefffe" d="M 280.5,202.5 C 285.74,206.233 290.574,210.566 295,215.5C 295.5,234.164 295.667,252.83 295.5,271.5C 290.5,271.5 285.5,271.5 280.5,271.5C 280.5,248.5 280.5,225.5 280.5,202.5 Z"/></g>
<g><path style="opacity:0.904" fill="#fe9900" d="M 214.5,256.5 C 225.167,256.5 235.833,256.5 246.5,256.5C 246.5,261.5 246.5,266.5 246.5,271.5C 235.833,271.5 225.167,271.5 214.5,271.5C 214.5,266.5 214.5,261.5 214.5,256.5 Z"/></g>
<g><path style="opacity:0.808" fill="#fefffe" d="M 196.5,288.5 C 201.305,297.438 206.138,306.438 211,315.5C 215.412,306.343 220.078,297.343 225,288.5C 226.106,292.122 226.439,295.789 226,299.5C 221,308.833 216,318.167 211,327.5C 205.246,317.661 199.746,307.661 194.5,297.5C 195.275,294.516 195.941,291.516 196.5,288.5 Z"/></g>
<g><path style="opacity:0.86" fill="#fefffe" d="M 173.5,289.5 C 175.5,289.5 177.5,289.5 179.5,289.5C 179.5,301.833 179.5,314.167 179.5,326.5C 177.5,326.5 175.5,326.5 173.5,326.5C 173.5,314.167 173.5,301.833 173.5,289.5 Z"/></g>
<g><path style="opacity:0.859" fill="#fefffe" d="M 241.5,289.5 C 247.909,289.183 254.243,289.683 260.5,291C 268.877,297.228 269.543,304.228 262.5,312C 257.777,314.235 252.777,315.069 247.5,314.5C 247.5,318.5 247.5,322.5 247.5,326.5C 245.5,326.5 243.5,326.5 241.5,326.5C 241.5,320.5 241.5,314.5 241.5,308.5C 246.844,308.666 252.177,308.499 257.5,308C 263.134,302.911 262.468,298.911 255.5,296C 250.845,295.501 246.179,295.334 241.5,295.5C 241.5,293.5 241.5,291.5 241.5,289.5 Z"/></g>
<g><path style="opacity:0.827" fill="#fefffe" d="M 275.5,289.5 C 282.833,289.5 290.167,289.5 297.5,289.5C 297.5,291.5 297.5,293.5 297.5,295.5C 290.167,295.5 282.833,295.5 275.5,295.5C 275.5,293.5 275.5,291.5 275.5,289.5 Z"/></g>
<g><path style="opacity:0.825" fill="#fefffe" d="M 305.5,290.5 C 308.024,289.2 310.691,289.2 313.5,290.5C 321.71,302.421 330.044,314.254 338.5,326C 336.167,326.667 333.833,326.667 331.5,326C 327.964,321.763 324.798,317.263 322,312.5C 318.833,317 315.667,321.5 312.5,326C 310.098,326.814 307.765,326.647 305.5,325.5C 309.71,319.793 313.71,313.96 317.5,308C 313.854,301.857 309.854,296.024 305.5,290.5 Z"/></g>
<g><path style="opacity:0.766" fill="#fefffe" d="M 330.5,289.5 C 332.924,289.192 335.257,289.526 337.5,290.5C 334.188,295.804 330.521,300.804 326.5,305.5C 325.289,304.126 324.289,302.626 323.5,301C 325.975,297.211 328.308,293.377 330.5,289.5 Z"/></g>
<g><path style="opacity:0.844" fill="#fefffe" d="M 226.5,301.5 C 228.688,309.605 230.355,317.938 231.5,326.5C 228.921,326.917 226.754,326.25 225,324.5C 224.488,319.762 223.655,315.095 222.5,310.5C 224.12,307.596 225.453,304.596 226.5,301.5 Z"/></g>
<g><path style="opacity:0.832" fill="#fefffe" d="M 193.5,302.5 C 196.559,304.778 198.226,307.945 198.5,312C 197.669,316.82 197.002,321.653 196.5,326.5C 194.5,326.5 192.5,326.5 190.5,326.5C 191.5,318.5 192.5,310.5 193.5,302.5 Z"/></g>
<g><path style="opacity:1" fill="#fe9900" d="M 77.5,305.5 C 106.5,305.5 135.5,305.5 164.5,305.5C 164.5,306.5 164.5,307.5 164.5,308.5C 135.5,308.5 106.5,308.5 77.5,308.5C 77.5,307.5 77.5,306.5 77.5,305.5 Z"/></g>
<g><path style="opacity:0.833" fill="#fefffe" d="M 275.5,305.5 C 281.833,305.5 288.167,305.5 294.5,305.5C 294.5,307.5 294.5,309.5 294.5,311.5C 288.167,311.5 281.833,311.5 275.5,311.5C 275.5,309.5 275.5,307.5 275.5,305.5 Z"/></g>
<g><path style="opacity:1" fill="#fe9900" d="M 352.5,306.5 C 373.833,306.5 395.167,306.5 416.5,306.5C 416.5,307.5 416.5,308.5 416.5,309.5C 395.167,309.5 373.833,309.5 352.5,309.5C 352.5,308.5 352.5,307.5 352.5,306.5 Z"/></g>
<g><path style="opacity:0.827" fill="#fefffe" d="M 275.5,320.5 C 282.833,320.5 290.167,320.5 297.5,320.5C 297.5,322.5 297.5,324.5 297.5,326.5C 290.167,326.5 282.833,326.5 275.5,326.5C 275.5,324.5 275.5,322.5 275.5,320.5 Z"/></g>
</svg>
