<?xml version="1.0" encoding="UTF-8"?>
<svg version="1.1" xmlns="http://www.w3.org/2000/svg" width="500" height="500">
<path d="M0 0 C165 0 330 0 500 0 C500 165 500 330 500 500 C335 500 170 500 0 500 C0 335 0 170 0 0 Z " fill="#000000" transform="translate(0,0)"/>
<path d="M0 0 C112.86 0 225.72 0 342 0 C341.67 1.32 341.34 2.64 341 4 C332.42 4.33 323.84 4.66 315 5 C314.67 6.32 314.34 7.64 314 9 C317.96 9.495 317.96 9.495 322 10 C322 10.99 322 11.98 322 13 C320.68 13 319.36 13 318 13 C318 15.64 318 18.28 318 21 C316.68 21 315.36 21 314 21 C313.67 18.69 313.34 16.38 313 14 C312.67 16.31 312.34 18.62 312 21 C308.94925785 21.28780586 306.03816258 21.45787911 303 21 C300.9375 18.5 300.9375 18.5 300 16 C299.34 17.65 298.68 19.3 298 21 C296.35 20.67 294.7 20.34 293 20 C292.67 18.68 292.34 17.36 292 16 C291.34 17.65 290.68 19.3 290 21 C288.68 21 287.36 21 286 21 C285.01 18.03 284.02 15.06 283 12 C282.66226562 12.84304688 282.32453125 13.68609375 281.9765625 14.5546875 C281.53054688 15.65039062 281.08453125 16.74609375 280.625 17.875 C279.96371094 19.51082031 279.96371094 19.51082031 279.2890625 21.1796875 C278 24 278 24 276 26 C274.68 26 273.36 26 272 26 C272.33 25.01 272.66 24.02 273 23 C273.99 23 274.98 23 276 23 C275.01 19.7 274.02 16.4 273 13 C271.02 13 269.04 13 267 13 C267 15.64 267 18.28 267 21 C261.33333333 21 255.66666667 21 250 21 C248.515 21.0928125 248.515 21.0928125 247 21.1875 C246.01 21.125625 245.02 21.06375 244 21 C241.8480563 17.77208445 241.79913557 16.71599191 242 13 C241.34 13 240.68 13 240 13 C240 15.64 240 18.28 240 21 C238.68 21 237.36 21 236 21 C235.67 19.35 235.34 17.7 235 16 C234.67 17.65 234.34 19.3 234 21 C232.68 21 231.36 21 230 21 C230 18.36 230 15.72 230 13 C228.68 13 227.36 13 226 13 C226.061875 14.27875 226.12375 15.5575 226.1875 16.875 C226.29296875 19.0546875 226.29296875 19.0546875 226 21 C223 23 223 23 220.3125 22.625 C219.549375 22.41875 218.78625 22.2125 218 22 C218 21.34 218 20.68 218 20 C217.071875 20.20625 216.14375 20.4125 215.1875 20.625 C212 21 212 21 209 19 C208.01 19.66 207.02 20.32 206 21 C202.8125 21.125 202.8125 21.125 200 21 C199.67 20.01 199.34 19.02 199 18 C200.98 18 202.96 18 205 18 C203.62308038 15.24616077 201.63279958 14.48516899 199 13 C199.875 8.125 199.875 8.125 201 7 C202.99958364 6.95919217 205.00045254 6.95745644 207 7 C207 6.34 207 5.68 207 5 C190.83 5 174.66 5 158 5 C157.67 6.65 157.34 8.3 157 10 C157.99 10 158.98 10 160 10 C160.33 11.98 160.66 13.96 161 16 C158.69 16 156.38 16 154 16 C154.33 16.66 154.66 17.32 155 18 C156.98 18 158.96 18 161 18 C160.67 18.99 160.34 19.98 160 21 C156.06225823 21.36630156 154.43460229 21.30233203 151.125 19 C150.42375 18.34 149.7225 17.68 149 17 C149 18.32 149 19.64 149 21 C147.68 21 146.36 21 145 21 C144.67 17.04 144.34 13.08 144 9 C143.67 12.96 143.34 16.92 143 21 C141.68 21 140.36 21 139 21 C139 17.7 139 14.4 139 11 C137.35 10.67 135.7 10.34 134 10 C134 13.63 134 17.26 134 21 C132.68 21 131.36 21 130 21 C130 17.37 130 13.74 130 10 C128.68 10 127.36 10 126 10 C126 9.01 126 8.02 126 7 C127.32 6.34 128.64 5.68 130 5 C126.04 5 122.08 5 118 5 C118.99 5.33 119.98 5.66 121 6 C120.67 7.98 120.34 9.96 120 12 C119.34 12 118.68 12 118 12 C118 14.97 118 17.94 118 21 C116.68 21 115.36 21 114 21 C113.505 19.02 113.505 19.02 113 17 C112.278125 17.680625 111.55625 18.36125 110.8125 19.0625 C108 21 108 21 105.3125 20.875 C103 20 103 20 101 18 C101.375 14.375 101.375 14.375 102 11 C103.32 10.67 104.64 10.34 106 10 C105.505 7.525 105.505 7.525 105 5 C100.38 5 95.76 5 91 5 C91.99 8.465 91.99 8.465 93 12 C91.68 12 90.36 12 89 12 C90.65 13.65 92.3 15.3 94 17 C93.34 18.32 92.68 19.64 92 21 C86.66666667 21 81.33333333 21 76 21 C75.505 19.515 75.505 19.515 75 18 C72.3094472 19.22007944 72.3094472 19.22007944 70 21 C68.33382885 21.04063832 66.66611905 21.042721 65 21 C65 22.65 65 24.3 65 26 C63.68 26 62.36 26 61 26 C60.34 24.68 59.68 23.36 59 22 C57.05925139 22.27617533 57.05925139 22.27617533 55 23 C54.34 23.99 53.68 24.98 53 26 C51.68 26 50.36 26 49 26 C49 25.01 49 24.02 49 23 C49.99 23 50.98 23 52 23 C51.60404157 21.51515588 51.18249294 20.0371169 50.75 18.5625 C50.40195313 17.32693359 50.40195313 17.32693359 50.046875 16.06640625 C49.19229321 13.80004532 49.19229321 13.80004532 46.890625 13.21484375 C46.26671875 13.14394531 45.6428125 13.07304687 45 13 C45 14.65 45 16.3 45 18 C45.66 18 46.32 18 47 18 C47 18.99 47 19.98 47 21 C45.02 20.67 43.04 20.34 41 20 C40.67 16.7 40.34 13.4 40 10 C40.66 10 41.32 10 42 10 C42 9.01 42 8.02 42 7 C42.99 7 43.98 7 45 7 C45 6.34 45 5.68 45 5 C40.38 5 35.76 5 31 5 C31.66 5.33 32.32 5.66 33 6 C33 10.95 33 15.9 33 21 C29.7 21 26.4 21 23 21 C22.97314905 18.52076199 22.95323453 16.0418116 22.9375 13.5625 C22.92912109 12.85544922 22.92074219 12.14839844 22.91210938 11.41992188 C22.90346412 9.61306441 22.94779989 7.80612397 23 6 C23.33 5.67 23.66 5.34 24 5 C12.615 4.505 12.615 4.505 1 4 C0.67 2.68 0.34 1.36 0 0 Z " fill="#1F1F1F" transform="translate(138,268)"/>
<path d="M0 0 C3.3312737 2.48391729 4.80962952 6.11865311 6 10 C6.33098187 12.75542406 6.52595629 15.1943471 6.5 17.9375 C6.49427979 18.64044189 6.48855957 19.34338379 6.48266602 20.06762695 C6.27927469 25.97008422 5.13388208 29.80268239 1 34 C0.52691406 34.52207031 0.05382812 35.04414063 -0.43359375 35.58203125 C-4.99458177 39.71080595 -9.96136243 39.66171112 -15.8984375 39.4296875 C-21.48167775 38.65619074 -25.23191979 36.170697 -29 32 C-32.76341864 24.33377685 -33.47881001 15.86452688 -30.9375 7.625 C-29.07368292 3.35338096 -25.84854523 0.52779448 -22 -2 C-14.75966215 -4.41344595 -6.79260917 -3.37546836 0 0 Z " fill="#F3F3F3" transform="translate(363,216)"/>
<path d="M0 0 C10.23 0 20.46 0 31 0 C30.34 0.33 29.68 0.66 29 1 C29 2.32 29 3.64 29 5 C30.32 5 31.64 5 33 5 C33.66 3.35 34.32 1.7 35 0 C48.53 0 62.06 0 76 0 C75.67 1.65 75.34 3.3 75 5 C73.68 5.33 72.36 5.66 71 6 C70.67 8.31 70.34 10.62 70 13 C68.25372522 10.38058783 67.61277612 8.96175123 67 6 C66.01 6 65.02 6 64 6 C64.495 7.485 64.495 7.485 65 9 C63.02 9 61.04 9 59 9 C59 11.64 59 14.28 59 17 C53.33333333 17 47.66666667 17 42 17 C41.01 17.061875 40.02 17.12375 39 17.1875 C38.01 17.125625 37.02 17.06375 36 17 C33.8480563 13.77208445 33.79913557 12.71599191 34 9 C33.34 9 32.68 9 32 9 C32 11.64 32 14.28 32 17 C30.68 17 29.36 17 28 17 C27.505 14.525 27.505 14.525 27 12 C26.67 13.65 26.34 15.3 26 17 C24.68 17 23.36 17 22 17 C22 14.36 22 11.72 22 9 C20.68 9 19.36 9 18 9 C18.061875 10.27875 18.12375 11.5575 18.1875 12.875 C18.29296875 15.0546875 18.29296875 15.0546875 18 17 C15 19 15 19 12.3125 18.625 C11.549375 18.41875 10.78625 18.2125 10 18 C10 17.34 10 16.68 10 16 C8.6078125 16.309375 8.6078125 16.309375 7.1875 16.625 C4 17 4 17 1 15 C0.01 15.66 -0.98 16.32 -2 17 C-5.1875 17.125 -5.1875 17.125 -8 17 C-8.33 16.01 -8.66 15.02 -9 14 C-7.02 14 -5.04 14 -3 14 C-4.37691962 11.24616077 -6.36720042 10.48516899 -9 9 C-8.125 4.125 -8.125 4.125 -7 3 C-5.00041636 2.95919217 -2.99954746 2.95745644 -1 3 C-0.67 2.01 -0.34 1.02 0 0 Z " fill="#0B0B0B" transform="translate(346,272)"/>
<path d="M0 0 C1.359375 1.3203125 1.359375 1.3203125 2.75 3.125 C5.36478724 6.34319968 8.14474589 8.95136249 11.33203125 11.58984375 C13.69694184 13.58921781 15.84174836 15.78179693 18 18 C18.598125 18.598125 19.19625 19.19625 19.8125 19.8125 C20.204375 20.204375 20.59625 20.59625 21 21 C19.4608199 24.66752005 17.24514548 26.98580573 14.4296875 29.765625 C13.08583984 31.09980469 13.08583984 31.09980469 11.71484375 32.4609375 C10.77769531 33.38132812 9.84054688 34.30171875 8.875 35.25 C7.92011363 36.19484856 6.96568141 37.14015633 6.01171875 38.0859375 C3.67890913 40.39518338 1.34155914 42.69963203 -1 45 C-6.63454697 42.57728127 -10.52740693 37.88175667 -14.8125 33.625 C-15.70904297 32.76132812 -16.60558594 31.89765625 -17.52929688 31.0078125 C-18.37169922 30.1725 -19.21410156 29.3371875 -20.08203125 28.4765625 C-20.85780518 27.71424316 -21.6335791 26.95192383 -22.43286133 26.16650391 C-24 24 -24 24 -24.01782227 22.01806641 C-22.62772456 19.26187844 -20.8112845 17.42190779 -18.6328125 15.234375 C-17.74722656 14.34492188 -16.86164062 13.45546875 -15.94921875 12.5390625 C-15.01722656 11.61867187 -14.08523437 10.69828125 -13.125 9.75 C-12.20074219 8.81414062 -11.27648437 7.87828125 -10.32421875 6.9140625 C-9.43605469 6.02976563 -8.54789063 5.14546875 -7.6328125 4.234375 C-6.81699707 3.42194336 -6.00118164 2.60951172 -5.16064453 1.77246094 C-3 0 -3 0 0 0 Z " fill="#080808" transform="translate(43,228)"/>
<path d="M0 0 C5.03897377 1.99563875 8.73285506 6.90400786 12.49536133 10.67700195 C13.91171875 12.05082031 13.91171875 12.05082031 15.35668945 13.45239258 C16.68796875 14.77980469 16.68796875 14.77980469 18.04614258 16.1340332 C18.86381104 16.94461182 19.68147949 17.75519043 20.52392578 18.59033203 C22.18286133 20.86450195 22.18286133 20.86450195 22.09765625 23.02734375 C20.74878243 25.73625101 18.5732345 27.07172208 16.18286133 28.86450195 C15.85286133 29.52450195 15.52286133 30.18450195 15.18286133 30.86450195 C14.52286133 30.86450195 13.86286133 30.86450195 13.18286133 30.86450195 C12.93536133 31.44200195 12.68786133 32.01950195 12.43286133 32.61450195 C10.99986144 35.19390175 9.39861456 36.92571787 7.18286133 38.86450195 C6.52286133 38.86450195 5.86286133 38.86450195 5.18286133 38.86450195 C4.93536133 39.48325195 4.68786133 40.10200195 4.43286133 40.73950195 C3.18286133 42.86450195 3.18286133 42.86450195 -0.81713867 44.86450195 C-8.07713867 37.60450195 -15.33713867 30.34450195 -22.81713867 22.86450195 C-21.31158682 18.3478464 -18.09928119 15.85076543 -14.37963867 12.98950195 C-11.1028493 10.27216442 -8.53935036 7.12210708 -5.81713867 3.86450195 C-2.38137633 -0.17757139 -2.38137633 -0.17757139 0 0 Z " fill="#050505" transform="translate(90.817138671875,228.135498046875)"/>
<path d="M0 0 C0.72993164 0.24580811 1.45986328 0.49161621 2.21191406 0.74487305 C2.21191406 1.40487305 2.21191406 2.06487305 2.21191406 2.74487305 C3.20191406 3.07487305 4.19191406 3.40487305 5.21191406 3.74487305 C6.92075412 5.3682711 8.58638123 7.03806358 10.21191406 8.74487305 C10.81003906 9.30174805 11.40816406 9.85862305 12.02441406 10.43237305 C13.21191406 11.74487305 13.21191406 11.74487305 13.21191406 13.74487305 C13.78941406 13.99237305 14.36691406 14.23987305 14.96191406 14.49487305 C17.59480088 15.95758795 19.33642076 17.38314073 21.21191406 19.74487305 C21.27441406 21.68237305 21.27441406 21.68237305 20.21191406 23.74487305 C18.56717098 25.43908209 16.89998572 27.09468238 15.21191406 28.74487305 C13.95405056 30.00002892 12.69763845 31.25664035 11.44238281 32.5144043 C7.69889323 36.25789388 3.95540365 40.00138346 0.21191406 43.74487305 C-5.42263291 41.32215432 -9.31549286 36.62662972 -13.60058594 32.36987305 C-14.49712891 31.50620117 -15.39367188 30.6425293 -16.31738281 29.75268555 C-17.15978516 28.91737305 -18.0021875 28.08206055 -18.87011719 27.22143555 C-19.64589111 26.45911621 -20.42166504 25.69679688 -21.22094727 24.91137695 C-22.78808594 22.74487305 -22.78808594 22.74487305 -22.7878418 20.75146484 C-20.45763768 16.07455456 -16.18822719 12.59057794 -12.53808594 8.93237305 C-11.67828125 8.03583008 -10.81847656 7.13928711 -9.93261719 6.21557617 C-8.67771484 4.95197266 -8.67771484 4.95197266 -7.39746094 3.6628418 C-6.25229004 2.49918091 -6.25229004 2.49918091 -5.08398438 1.31201172 C-2.78808594 -0.25512695 -2.78808594 -0.25512695 0 0 Z " fill="#0C0704" transform="translate(66.7880859375,253.255126953125)"/>
<path d="M0 0 C0.66 0 1.32 0 2 0 C3.234375 1.2578125 3.234375 1.2578125 4.75 3.125 C7.23288837 6.08536691 9.82382122 8.83557424 12.609375 11.5078125 C13.2477832 12.12382324 13.88619141 12.73983398 14.54394531 13.37451172 C15.84092201 14.61806826 17.14753832 15.85165358 18.46386719 17.07470703 C19.06360352 17.65333496 19.66333984 18.23196289 20.28125 18.828125 C20.82845703 19.3427832 21.37566406 19.85744141 21.93945312 20.38769531 C23 22 23 22 22.66992188 24.19824219 C22.44884766 24.79282227 22.22777344 25.38740234 22 26 C21.34 26 20.68 26 20 26 C20 26.66 20 27.32 20 28 C18.390625 29.55078125 18.390625 29.55078125 16.25 31.3125 C13.08238651 33.98762235 10.56907035 36.73925686 8 40 C7.34 40 6.68 40 6 40 C5.7525 40.639375 5.505 41.27875 5.25 41.9375 C4 44 4 44 2.1875 45 C-1.19059655 45 -2.57601501 43.24218611 -5 41 C-5.763125 40.29875 -6.52625 39.5975 -7.3125 38.875 C-9 37 -9 37 -9 35 C-9.5775 34.7525 -10.155 34.505 -10.75 34.25 C-13.32939979 32.81700012 -15.06121592 31.21575324 -17 29 C-17 28.34 -17 27.68 -17 27 C-17.639375 26.731875 -18.27875 26.46375 -18.9375 26.1875 C-21 25 -21 25 -22 22 C-21.34 22 -20.68 22 -20 22 C-20 21.34 -20 20.68 -20 20 C-15.69767442 15.23255814 -15.69767442 15.23255814 -12 14 C-11.67 13.01 -11.34 12.02 -11 11 C-10.34 11 -9.68 11 -9 11 C-8.67 10.01 -8.34 9.02 -8 8 C-6.01739574 6.31267723 -4.0167658 4.64633943 -2 3 C-1.34 2.01 -0.68 1.02 0 0 Z " fill="#0B0704" transform="translate(65,202)"/>
<path d="M0 0 C112.86 0 225.72 0 342 0 C342 0.99 342 1.98 342 3 C229.14 3 116.28 3 0 3 C0 2.01 0 1.02 0 0 Z " fill="#FEFEFE" transform="translate(138,268)"/>
<path d="M0 0 C3.63 0 7.26 0 11 0 C13.11865761 3.66575271 15.23655968 7.33194053 17.35375977 10.99853516 C18.07425469 12.24605126 18.79495668 13.4934478 19.51586914 14.74072266 C20.55148791 16.53256408 21.58636357 18.32483284 22.62109375 20.1171875 C23.2442749 21.19597168 23.86745605 22.27475586 24.50952148 23.38623047 C25.37525224 24.9044145 26.21841539 26.43683078 27 28 C27.33 18.76 27.66 9.52 28 0 C30.31 0 32.62 0 35 0 C35 13.2 35 26.4 35 40 C31.37 40 27.74 40 24 40 C23.62488281 39.31035156 23.24976563 38.62070313 22.86328125 37.91015625 C22.35152344 36.97042969 21.83976562 36.03070313 21.3125 35.0625 C20.76980469 34.06476563 20.22710937 33.06703125 19.66796875 32.0390625 C17.77829525 28.59605083 15.8406443 25.18200093 13.8828125 21.77734375 C13 20 13 20 13 18 C12.34 18 11.68 18 11 18 C10.01 16.02 9.02 14.04 8 12 C7.67 21.24 7.34 30.48 7 40 C4.69 40 2.38 40 0 40 C0 26.8 0 13.6 0 0 Z " fill="#FBFBFB" transform="translate(378,214)"/>
<path d="M0 0 C7.59 0 15.18 0 23 0 C23 2.31 23 4.62 23 7 C18.38 7 13.76 7 9 7 C9 9.97 9 12.94 9 16 C13.29 16 17.58 16 22 16 C22 18.31 22 20.62 22 23 C17.71 23 13.42 23 9 23 C9 26.3 9 29.6 9 33 C13.62 33 18.24 33 23 33 C23 35.31 23 37.62 23 40 C15.41 40 7.82 40 0 40 C0 26.8 0 13.6 0 0 Z " fill="#F7F7F7" transform="translate(423,214)"/>
<path d="M0 0 C9.57 0 19.14 0 29 0 C29 6.74899483 29 6.74899483 26.078125 10.75 C25.46453125 11.6059375 24.8509375 12.461875 24.21875 13.34375 C23.5690625 14.2203125 22.919375 15.096875 22.25 16 C20.984013 17.74973814 19.7183791 19.49973182 18.453125 21.25 C17.88754883 22.01828125 17.32197266 22.7865625 16.73925781 23.578125 C14.75764581 26.33747242 12.88441252 29.17338122 11 32 C17.27 32.33 23.54 32.66 30 33 C30 35.31 30 37.62 30 40 C20.1 40 10.2 40 0 40 C0 33.23963134 0 33.23963134 2.875 29 C3.5040625 28.06285156 4.133125 27.12570313 4.78125 26.16015625 C8.14206508 21.37336153 11.52761651 16.60615417 14.9609375 11.87109375 C16.95331565 9.22110805 16.95331565 9.22110805 18 7 C12.06 7 6.12 7 0 7 C0 4.69 0 2.38 0 0 Z " fill="#F7F7F7" transform="translate(297,214)"/>
<path d="M0 0 C4.40617281 2.16303029 7.1644597 4.41114924 9 9 C9 11.97 9 14.94 9 18 C2.4 18 -4.2 18 -11 18 C-8.83333333 23.83333333 -8.83333333 23.83333333 -6 25 C-1.17387057 25.27843054 2.49907826 24.75645727 7 23 C7 25.31 7 27.62 7 30 C3.50231017 32.14650403 0.62648263 32.29840526 -3.4375 32.3125 C-4.54996094 32.32925781 -5.66242188 32.34601563 -6.80859375 32.36328125 C-11.78556528 31.79674716 -14.21368404 29.97758201 -17.3125 26.125 C-20.05464649 20.9082335 -19.80195447 14.70760391 -19 9 C-14.94573605 0.83355403 -8.69717346 -1.4000328 0 0 Z " fill="#F0F0F0" transform="translate(242,223)"/>
<path d="M0 0 C13.53 0 27.06 0 41 0 C40.67 1.65 40.34 3.3 40 5 C38.68 5.33 37.36 5.66 36 6 C35.67 8.31 35.34 10.62 35 13 C33.25372522 10.38058783 32.61277612 8.96175123 32 6 C31.01 6 30.02 6 29 6 C29.495 7.485 29.495 7.485 30 9 C28.02 9 26.04 9 24 9 C24 11.64 24 14.28 24 17 C18.33333333 17 12.66666667 17 7 17 C6.01 17.061875 5.02 17.12375 4 17.1875 C3.01 17.125625 2.02 17.06375 1 17 C-1.1519437 13.77208445 -1.20086443 12.71599191 -1 9 C-1.66 9 -2.32 9 -3 9 C-3 8.01 -3 7.02 -3 6 C-3.99 5.67 -4.98 5.34 -6 5 C-4.68 5 -3.36 5 -2 5 C-1.34 3.35 -0.68 1.7 0 0 Z " fill="#090909" transform="translate(381,272)"/>
<path d="M0 0 C2.29141286 -0.05384521 4.58318188 -0.09272087 6.875 -0.125 C8.78925781 -0.15980469 8.78925781 -0.15980469 10.7421875 -0.1953125 C14 0 14 0 16 2 C15.67 2.99 15.34 3.98 15 5 C17.64 5.33 20.28 5.66 23 6 C23 6.99 23 7.98 23 9 C21.68 9 20.36 9 19 9 C19 11.64 19 14.28 19 17 C17.68 17 16.36 17 15 17 C14.505 13.535 14.505 13.535 14 10 C13.67 12.31 13.34 14.62 13 17 C9.94925785 17.28780586 7.03816258 17.45787911 4 17 C1.9375 14.5 1.9375 14.5 1 12 C0.34 13.65 -0.32 15.3 -1 17 C-2.65 16.67 -4.3 16.34 -6 16 C-6.33 14.68 -6.66 13.36 -7 12 C-7.66 13.65 -8.32 15.3 -9 17 C-10.32 17 -11.64 17 -13 17 C-13.99 14.03 -14.98 11.06 -16 8 C-16.33773438 8.84304688 -16.67546875 9.68609375 -17.0234375 10.5546875 C-17.46945312 11.65039062 -17.91546875 12.74609375 -18.375 13.875 C-18.81585938 14.96554687 -19.25671875 16.05609375 -19.7109375 17.1796875 C-21 20 -21 20 -23 22 C-24.32 22 -25.64 22 -27 22 C-26.505 20.515 -26.505 20.515 -26 19 C-25.01 19 -24.02 19 -23 19 C-23.28875 18.22914063 -23.5775 17.45828125 -23.875 16.6640625 C-24.24625 15.66117187 -24.6175 14.65828125 -25 13.625 C-25.37125 12.62726563 -25.7425 11.62953125 -26.125 10.6015625 C-27 8 -27 8 -27 6 C-26.01 6 -25.02 6 -24 6 C-22.3125 8 -22.3125 8 -21 10 C-20.67 8.68 -20.34 7.36 -20 6 C-17.36 6 -14.72 6 -12 6 C-11.67 7.32 -11.34 8.64 -11 10 C-10.690625 9.071875 -10.690625 9.071875 -10.375 8.125 C-8.45750757 5.16160261 -6.29882268 4.98262803 -3 4 C-2.67 3.34 -2.34 2.68 -2 2 C-1.34 2 -0.68 2 0 2 C0 1.34 0 0.68 0 0 Z " fill="#050505" transform="translate(437,272)"/>
<path d="M0 0 C1.359375 1.3203125 1.359375 1.3203125 2.75 3.125 C5.36478724 6.34319968 8.14474589 8.95136249 11.33203125 11.58984375 C13.69694184 13.58921781 15.84174836 15.78179693 18 18 C18.598125 18.598125 19.19625 19.19625 19.8125 19.8125 C20.204375 20.204375 20.59625 20.59625 21 21 C19.4608199 24.66752005 17.24514548 26.98580573 14.4296875 29.765625 C13.08583984 31.09980469 13.08583984 31.09980469 11.71484375 32.4609375 C10.77769531 33.38132812 9.84054688 34.30171875 8.875 35.25 C7.92011363 36.19484856 6.96568141 37.14015633 6.01171875 38.0859375 C3.67890913 40.39518338 1.34155914 42.69963203 -1 45 C-6.63454697 42.57728127 -10.52740693 37.88175667 -14.8125 33.625 C-15.70904297 32.76132812 -16.60558594 31.89765625 -17.52929688 31.0078125 C-18.37169922 30.1725 -19.21410156 29.3371875 -20.08203125 28.4765625 C-20.85780518 27.71424316 -21.6335791 26.95192383 -22.43286133 26.16650391 C-24 24 -24 24 -24.01782227 22.01806641 C-22.62772456 19.26187844 -20.8112845 17.42190779 -18.6328125 15.234375 C-17.74722656 14.34492188 -16.86164062 13.45546875 -15.94921875 12.5390625 C-15.01722656 11.61867187 -14.08523437 10.69828125 -13.125 9.75 C-12.20074219 8.81414062 -11.27648437 7.87828125 -10.32421875 6.9140625 C-9.43605469 6.02976563 -8.54789063 5.14546875 -7.6328125 4.234375 C-6.81699707 3.42194336 -6.00118164 2.60951172 -5.16064453 1.77246094 C-3 0 -3 0 0 0 Z M-11 13 C-12.64702811 14.83443612 -14.23039355 16.69484783 -15.7734375 18.6171875 C-17 20 -17 20 -19 21 C-17.6415798 24.04332765 -16.11536976 26.12309151 -13.7421875 28.453125 C-13.11699219 29.071875 -12.49179687 29.690625 -11.84765625 30.328125 C-11.19667969 30.96234375 -10.54570313 31.5965625 -9.875 32.25 C-9.21628906 32.8996875 -8.55757812 33.549375 -7.87890625 34.21875 C-6.25703357 35.81711727 -4.6306719 37.41061897 -3 39 C-0.20065475 37.72678341 1.81197577 36.42476367 3.9453125 34.21484375 C4.46480469 33.68439453 4.98429687 33.15394531 5.51953125 32.60742188 C6.31423828 31.78081055 6.31423828 31.78081055 7.125 30.9375 C12.76013514 25.11993243 12.76013514 25.11993243 15 24 C15.34899197 20.99894953 15.34899197 20.99894953 13.49609375 19.45703125 C12.81675781 18.91433594 12.13742188 18.37164062 11.4375 17.8125 C7.66678843 14.68361167 4.59689316 11.32675225 1.54296875 7.50390625 C-2.97144449 3.10378196 -7.75499687 9.82860753 -11 13 Z " fill="#E7E7E7" transform="translate(43,228)"/>
<path d="M0 0 C5.03897377 1.99563875 8.73285506 6.90400786 12.49536133 10.67700195 C13.91171875 12.05082031 13.91171875 12.05082031 15.35668945 13.45239258 C16.68796875 14.77980469 16.68796875 14.77980469 18.04614258 16.1340332 C18.86381104 16.94461182 19.68147949 17.75519043 20.52392578 18.59033203 C22.18286133 20.86450195 22.18286133 20.86450195 22.09765625 23.02734375 C20.74878243 25.73625101 18.5732345 27.07172208 16.18286133 28.86450195 C15.85286133 29.52450195 15.52286133 30.18450195 15.18286133 30.86450195 C14.52286133 30.86450195 13.86286133 30.86450195 13.18286133 30.86450195 C12.93536133 31.44200195 12.68786133 32.01950195 12.43286133 32.61450195 C10.99986144 35.19390175 9.39861456 36.92571787 7.18286133 38.86450195 C6.52286133 38.86450195 5.86286133 38.86450195 5.18286133 38.86450195 C4.93536133 39.48325195 4.68786133 40.10200195 4.43286133 40.73950195 C3.18286133 42.86450195 3.18286133 42.86450195 -0.81713867 44.86450195 C-8.07713867 37.60450195 -15.33713867 30.34450195 -22.81713867 22.86450195 C-21.31158682 18.3478464 -18.09928119 15.85076543 -14.37963867 12.98950195 C-11.1028493 10.27216442 -8.53935036 7.12210708 -5.81713867 3.86450195 C-2.38137633 -0.17757139 -2.38137633 -0.17757139 0 0 Z M-4.00463867 7.73950195 C-6.03345421 9.65261529 -6.03345421 9.65261529 -5.81713867 11.86450195 C-6.39463867 12.11200195 -6.97213867 12.35950195 -7.56713867 12.61450195 C-10.14653846 14.04750184 -11.87835459 15.64874872 -13.81713867 17.86450195 C-13.81713867 18.52450195 -13.81713867 19.18450195 -13.81713867 19.86450195 C-14.80713867 20.19450195 -15.79713867 20.52450195 -16.81713867 20.86450195 C-15.45871847 23.90782961 -13.93250843 25.98759346 -11.55932617 28.31762695 C-10.93413086 28.93637695 -10.30893555 29.55512695 -9.66479492 30.19262695 C-9.01381836 30.8268457 -8.3628418 31.46106445 -7.69213867 32.11450195 C-7.03342773 32.76418945 -6.3747168 33.41387695 -5.69604492 34.08325195 C-4.07417225 35.68161923 -2.44781057 37.27512093 -0.81713867 38.86450195 C3.62054399 36.06869594 7.3924075 33.04729887 11.12036133 29.36450195 C11.62631836 28.89141602 12.13227539 28.41833008 12.65356445 27.9309082 C14.27952556 26.38773669 14.27952556 26.38773669 16.18286133 23.86450195 C15.87390165 20.47908374 14.47516175 18.7724912 12.12817383 16.41137695 C11.20584961 15.48325195 11.20584961 15.48325195 10.26489258 14.53637695 C9.61907227 13.9021582 8.97325195 13.26793945 8.30786133 12.61450195 C7.66977539 11.96481445 7.03168945 11.31512695 6.37426758 10.64575195 C5.75680664 10.0321582 5.1393457 9.41856445 4.50317383 8.78637695 C3.93872559 8.2253125 3.37427734 7.66424805 2.79272461 7.08618164 C-0.02185141 4.95027954 -1.4497723 5.54961649 -4.00463867 7.73950195 Z " fill="#E5E6E6" transform="translate(90.817138671875,228.135498046875)"/>
<path d="M0 0 C2.8100346 1.79363911 4.50940468 3.01880935 6 6 C6.12362239 8.26832709 6.17560648 10.54083787 6.1875 12.8125 C6.20167969 14.03582031 6.21585937 15.25914062 6.23046875 16.51953125 C6.00886728 19.86608911 5.54098615 22.04599887 4 25 C1.27206966 27.19749944 -0.52063166 27.94007896 -4 28.375 C-7.47936834 27.94007896 -9.27206966 27.19749944 -12 25 C-14.88553986 19.28945608 -14.65828162 13.2458387 -14 7 C-11.42950593 0.34339036 -6.76218345 -0.97157808 0 0 Z " fill="#0B0B0B" transform="translate(354,220)"/>
<path d="M0 0 C9.9 0 19.8 0 30 0 C30 2.31 30 4.62 30 7 C26.37 7 22.74 7 19 7 C19 17.89 19 28.78 19 40 C16.36 40 13.72 40 11 40 C11 29.11 11 18.22 11 7 C7.37 7 3.74 7 0 7 C0 4.69 0 2.38 0 0 Z " fill="#FEFEFE" transform="translate(153,214)"/>
<path d="M0 0 C-0.33 1.98 -0.66 3.96 -1 6 C-5.29 5.34 -9.58 4.68 -14 4 C-12.62184338 8.90167169 -12.62184338 8.90167169 -9.9765625 10.22265625 C-9.20054687 10.49980469 -8.42453125 10.77695313 -7.625 11.0625 C-0.88975334 13.82177847 -0.88975334 13.82177847 1 17 C1.27267246 20.19084789 1.00514173 22.95569142 0 26 C-3.95873798 29.42377339 -8.38461634 30.14251844 -13.5 30.125 C-14.2528125 30.12757813 -15.005625 30.13015625 -15.78125 30.1328125 C-17.973535 30.00158417 -19.89319137 29.60331338 -22 29 C-22 26.69 -22 24.38 -22 22 C-21.360625 22.165 -20.72125 22.33 -20.0625 22.5 C-16.02413348 23.15932515 -12.08192742 23.08003779 -8 23 C-9.43090751 19.35698683 -10.96987891 18.16276961 -14.4375 16.4375 C-19.94670523 13.66928321 -19.94670523 13.66928321 -22 11 C-22.7342787 7.90919897 -22.66629462 5.10190939 -22 2 C-16.26057207 -4.19254066 -7.22678055 -3.04285497 0 0 Z " fill="#F3F3F3" transform="translate(278,225)"/>
<path d="M0 0 C0.72993164 0.24580811 1.45986328 0.49161621 2.21191406 0.74487305 C2.21191406 1.40487305 2.21191406 2.06487305 2.21191406 2.74487305 C3.20191406 3.07487305 4.19191406 3.40487305 5.21191406 3.74487305 C6.92075412 5.3682711 8.58638123 7.03806358 10.21191406 8.74487305 C10.81003906 9.30174805 11.40816406 9.85862305 12.02441406 10.43237305 C13.21191406 11.74487305 13.21191406 11.74487305 13.21191406 13.74487305 C13.78941406 13.99237305 14.36691406 14.23987305 14.96191406 14.49487305 C17.59480088 15.95758795 19.33642076 17.38314073 21.21191406 19.74487305 C21.27441406 21.68237305 21.27441406 21.68237305 20.21191406 23.74487305 C18.56717098 25.43908209 16.89998572 27.09468238 15.21191406 28.74487305 C13.95405056 30.00002892 12.69763845 31.25664035 11.44238281 32.5144043 C7.69889323 36.25789388 3.95540365 40.00138346 0.21191406 43.74487305 C-5.42263291 41.32215432 -9.31549286 36.62662972 -13.60058594 32.36987305 C-14.49712891 31.50620117 -15.39367188 30.6425293 -16.31738281 29.75268555 C-17.15978516 28.91737305 -18.0021875 28.08206055 -18.87011719 27.22143555 C-19.64589111 26.45911621 -20.42166504 25.69679688 -21.22094727 24.91137695 C-22.78808594 22.74487305 -22.78808594 22.74487305 -22.7878418 20.75146484 C-20.45763768 16.07455456 -16.18822719 12.59057794 -12.53808594 8.93237305 C-11.67828125 8.03583008 -10.81847656 7.13928711 -9.93261719 6.21557617 C-8.67771484 4.95197266 -8.67771484 4.95197266 -7.39746094 3.6628418 C-6.25229004 2.49918091 -6.25229004 2.49918091 -5.08398438 1.31201172 C-2.78808594 -0.25512695 -2.78808594 -0.25512695 0 0 Z M-3.48388672 6.21362305 C-4.14372559 6.88393555 -4.80356445 7.55424805 -5.48339844 8.24487305 C-6.55654297 9.32768555 -6.55654297 9.32768555 -7.65136719 10.43237305 C-8.77091797 11.57706055 -8.77091797 11.57706055 -9.91308594 12.74487305 C-10.6671875 13.50799805 -11.42128906 14.27112305 -12.19824219 15.05737305 C-14.0660556 16.94882967 -15.92905861 18.84478667 -17.78808594 20.74487305 C-15.04116635 26.63645624 -10.17199581 30.35030383 -5.24121094 34.4128418 C-3.78808594 35.74487305 -3.78808594 35.74487305 -2.78808594 37.74487305 C-0.31308594 37.24987305 -0.31308594 37.24987305 2.21191406 36.74487305 C2.21191406 36.08487305 2.21191406 35.42487305 2.21191406 34.74487305 C3.20191406 34.41487305 4.19191406 34.08487305 5.21191406 33.74487305 C7.85277522 31.30715505 10.16181894 28.80784977 12.39941406 25.99487305 C14.21191406 23.74487305 14.21191406 23.74487305 16.21191406 22.74487305 C14.86088757 19.73472011 13.34855719 17.62519839 11.02441406 15.29174805 C10.10015625 14.36362305 10.10015625 14.36362305 9.15722656 13.41674805 C8.19429687 12.46541992 8.19429687 12.46541992 7.21191406 11.49487305 C6.56996094 10.84518555 5.92800781 10.19549805 5.26660156 9.52612305 C4.34234375 8.60573242 4.34234375 8.60573242 3.39941406 7.66674805 C2.83609375 7.10568359 2.27277344 6.54461914 1.69238281 5.96655273 C-0.5342155 4.12916851 -1.33228488 4.3500992 -3.48388672 6.21362305 Z " fill="#E1B161" transform="translate(66.7880859375,253.255126953125)"/>
<path d="M0 0 C0.66 0 1.32 0 2 0 C3.234375 1.2578125 3.234375 1.2578125 4.75 3.125 C7.23288837 6.08536691 9.82382122 8.83557424 12.609375 11.5078125 C13.2477832 12.12382324 13.88619141 12.73983398 14.54394531 13.37451172 C15.84092201 14.61806826 17.14753832 15.85165358 18.46386719 17.07470703 C19.06360352 17.65333496 19.66333984 18.23196289 20.28125 18.828125 C20.82845703 19.3427832 21.37566406 19.85744141 21.93945312 20.38769531 C23 22 23 22 22.66992188 24.19824219 C22.44884766 24.79282227 22.22777344 25.38740234 22 26 C21.34 26 20.68 26 20 26 C20 26.66 20 27.32 20 28 C18.390625 29.55078125 18.390625 29.55078125 16.25 31.3125 C13.08238651 33.98762235 10.56907035 36.73925686 8 40 C7.34 40 6.68 40 6 40 C5.7525 40.639375 5.505 41.27875 5.25 41.9375 C4 44 4 44 2.1875 45 C-1.19059655 45 -2.57601501 43.24218611 -5 41 C-5.763125 40.29875 -6.52625 39.5975 -7.3125 38.875 C-9 37 -9 37 -9 35 C-9.5775 34.7525 -10.155 34.505 -10.75 34.25 C-13.32939979 32.81700012 -15.06121592 31.21575324 -17 29 C-17 28.34 -17 27.68 -17 27 C-17.639375 26.731875 -18.27875 26.46375 -18.9375 26.1875 C-21 25 -21 25 -22 22 C-21.34 22 -20.68 22 -20 22 C-20 21.34 -20 20.68 -20 20 C-15.69767442 15.23255814 -15.69767442 15.23255814 -12 14 C-11.67 13.01 -11.34 12.02 -11 11 C-10.34 11 -9.68 11 -9 11 C-8.67 10.01 -8.34 9.02 -8 8 C-6.01739574 6.31267723 -4.0167658 4.64633943 -2 3 C-1.34 2.01 -0.68 1.02 0 0 Z M0 6 C-0.2475 6.61875 -0.495 7.2375 -0.75 7.875 C-2.25275716 10.42968717 -3.39718494 10.69859247 -6 12 C-7.34423339 13.65788785 -8.67618483 15.32576317 -10 17 C-11.93944702 18.75792242 -13.94957083 20.36897679 -16 22 C-14.6415798 25.04332765 -13.11536976 27.12309151 -10.7421875 29.453125 C-10.11699219 30.071875 -9.49179687 30.690625 -8.84765625 31.328125 C-8.19667969 31.96234375 -7.54570313 32.5965625 -6.875 33.25 C-6.21628906 33.8996875 -5.55757812 34.549375 -4.87890625 35.21875 C-3.25703357 36.81711727 -1.6306719 38.41061897 0 40 C3.01015294 38.6489735 5.11967466 37.13664313 7.453125 34.8125 C8.071875 34.19632813 8.690625 33.58015625 9.328125 32.9453125 C9.96234375 32.30335938 10.5965625 31.66140625 11.25 31 C11.8996875 30.35804688 12.549375 29.71609375 13.21875 29.0546875 C14.13914062 28.13042969 14.13914062 28.13042969 15.078125 27.1875 C15.63918945 26.62417969 16.20025391 26.06085938 16.77832031 25.48046875 C18.21215792 24.06280891 18.21215792 24.06280891 18 22 C15.66652351 19.46651124 13.29333118 17.22563937 10.5625 15.125 C7.74816182 12.79115858 5.60232268 10.24196727 3.33203125 7.390625 C2.89246094 6.93171875 2.45289062 6.4728125 2 6 C1.34 6 0.68 6 0 6 Z " fill="#E2B062" transform="translate(65,202)"/>
<path d="M0 0 C5.28 0 10.56 0 16 0 C16 1.32 16 2.64 16 4 C17.32 4.33 18.64 4.66 20 5 C19.34 5 18.68 5 18 5 C18 5.66 18 6.32 18 7 C18.969375 6.814375 19.93875 6.62875 20.9375 6.4375 C22.4534375 6.2209375 22.4534375 6.2209375 24 6 C25 7 25 7 25.0625 10.0625 C25.041875 11.031875 25.02125 12.00125 25 13 C24.01 13.495 24.01 13.495 23 14 C23 12.35 23 10.7 23 9 C21.68 9 20.36 9 19 9 C19 10.98 19 12.96 19 15 C19.99 15 20.98 15 22 15 C22 15.66 22 16.32 22 17 C21.01 17 20.02 17 19 17 C19 18.65 19 20.3 19 22 C17.68 22 16.36 22 15 22 C14.34 20.68 13.68 19.36 13 18 C11.05925139 18.27617533 11.05925139 18.27617533 9 19 C8.34 19.99 7.68 20.98 7 22 C5.68 22 4.36 22 3 22 C3 21.01 3 20.02 3 19 C3.99 19 4.98 19 6 19 C5.60404157 17.51515588 5.18249294 16.0371169 4.75 14.5625 C4.51796875 13.73878906 4.2859375 12.91507812 4.046875 12.06640625 C3.19229321 9.80004532 3.19229321 9.80004532 0.890625 9.21484375 C0.26671875 9.14394531 -0.3571875 9.07304687 -1 9 C-1 10.65 -1 12.3 -1 14 C-0.34 14 0.32 14 1 14 C1 14.99 1 15.98 1 17 C-0.98 16.67 -2.96 16.34 -5 16 C-5.33 12.7 -5.66 9.4 -6 6 C-5.34 6 -4.68 6 -4 6 C-4 5.01 -4 4.02 -4 3 C-3.01 3 -2.02 3 -1 3 C-0.67 2.01 -0.34 1.02 0 0 Z " fill="#141414" transform="translate(184,272)"/>
<path d="M0 0 C4.43737712 -0.08690253 8.87453634 -0.14035926 13.3125 -0.1875 C14.57513672 -0.21263672 15.83777344 -0.23777344 17.13867188 -0.26367188 C18.34716797 -0.27333984 19.55566406 -0.28300781 20.80078125 -0.29296875 C21.91622314 -0.3086792 23.03166504 -0.32438965 24.1809082 -0.34057617 C27 0 27 0 28.84448242 1.3503418 C30.34482236 3.49228073 30.65314694 5.43328735 31 8 C29.68 8 28.36 8 27 8 C28.65 9.65 30.3 11.3 32 13 C31.34 14.32 30.68 15.64 30 17 C24.66666667 17 19.33333333 17 14 17 C13.67 16.01 13.34 15.02 13 14 C12.401875 14.309375 11.80375 14.61875 11.1875 14.9375 C9 16 9 16 6 17 C6 16.34 6 15.68 6 15 C5.01 15 4.02 15 3 15 C3 13.02 3 11.04 3 9 C4.32 9 5.64 9 7 9 C7.33 10.32 7.66 11.64 8 13 C8 11.02 8 9.04 8 7 C6.02 7 4.04 7 2 7 C2 6.34 2 5.68 2 5 C0.54166642 3.37485532 0.54166642 3.37485532 -1 2 C-0.67 1.34 -0.34 0.68 0 0 Z " fill="#080808" transform="translate(200,272)"/>
<path d="M0 0 C1.11890625 -0.01224609 2.2378125 -0.02449219 3.390625 -0.03710938 C4.99164063 -0.04000977 4.99164063 -0.04000977 6.625 -0.04296875 C7.60726563 -0.04707764 8.58953125 -0.05118652 9.6015625 -0.05541992 C12 0.1875 12 0.1875 14 2.1875 C13.625 4.3125 13.625 4.3125 13 6.1875 C13.99 6.1875 14.98 6.1875 16 6.1875 C16.495 9.1575 16.495 9.1575 17 12.1875 C14.69 12.1875 12.38 12.1875 10 12.1875 C10.33 12.8475 10.66 13.5075 11 14.1875 C12.98 14.1875 14.96 14.1875 17 14.1875 C16.67 15.1775 16.34 16.1675 16 17.1875 C12.06225823 17.55380156 10.43460229 17.48983203 7.125 15.1875 C6.42375 14.5275 5.7225 13.8675 5 13.1875 C5 14.5075 5 15.8275 5 17.1875 C3.68 17.1875 2.36 17.1875 1 17.1875 C0.67 13.2275 0.34 9.2675 0 5.1875 C-0.33 9.1475 -0.66 13.1075 -1 17.1875 C-2.32 17.1875 -3.64 17.1875 -5 17.1875 C-5 13.8875 -5 10.5875 -5 7.1875 C-6.65 6.8575 -8.3 6.5275 -10 6.1875 C-10 9.8175 -10 13.4475 -10 17.1875 C-11.32 17.1875 -12.64 17.1875 -14 17.1875 C-14 13.5575 -14 9.9275 -14 6.1875 C-15.32 6.1875 -16.64 6.1875 -18 6.1875 C-18 5.1975 -18 4.2075 -18 3.1875 C-11.69111891 0.03305945 -7.08373141 0.00408049 0 0 Z " fill="#040404" transform="translate(282,271.8125)"/>
<path d="M0 0 C2.97 0 5.94 0 9 0 C9 13.2 9 26.4 9 40 C6.03 40 3.06 40 0 40 C0 26.8 0 13.6 0 0 Z " fill="#EEEEEE" transform="translate(189,214)"/>
<path d="M0 0 C0.495 1.485 0.495 1.485 1 3 C1.99 3.33 2.98 3.66 4 4 C3.01 4.33 2.02 4.66 1 5 C-1.72634408 7.51110639 -4.09967081 10.12267176 -6.4375 13 C-9.11532298 16.13501227 -11.80177573 18.41420165 -15 21 C-16.35099103 22.31543863 -17.69205669 23.64175118 -19 25 C-17.4946758 28.53550476 -15.44283134 30.78940053 -12.71875 33.4765625 C-11.45611328 34.72953125 -11.45611328 34.72953125 -10.16796875 36.0078125 C-9.28753906 36.87148438 -8.40710938 37.73515625 -7.5 38.625 C-6.61957031 39.49640625 -5.73914063 40.3678125 -4.83203125 41.265625 C-3.20341529 42.8767826 -1.57275953 44.48588267 0.06054688 46.09228516 C1.37916368 47.38932339 2.69212797 48.69212797 4 50 C3.34 50 2.68 50 2 50 C1.7525 50.9075 1.505 51.815 1.25 52.75 C-0.05813046 56.1511392 -1.07541935 57.84957305 -4 60 C-6.25 59.75 -6.25 59.75 -8 59 C-6.625 57.5 -6.625 57.5 -5 56 C-4.34 56 -3.68 56 -3 56 C-1.74761251 53.93724414 -1 52.49953105 -1 50.0625 C-2.26409297 47.45530825 -4.13271796 46.10412844 -6.390625 44.3515625 C-8.93600261 42.21393955 -10.87615065 39.54861921 -13 37 C-14.06350368 36.06039966 -15.14699973 35.14290498 -16.25 34.25 C-19 32 -19 32 -20 30 C-24.37117005 30.49915169 -26.30176899 31.8137235 -29.35546875 34.9296875 C-30.14244141 35.72503906 -30.92941406 36.52039063 -31.74023438 37.33984375 C-32.54783203 38.17644531 -33.35542969 39.01304687 -34.1875 39.875 C-35.00669922 40.70386719 -35.82589844 41.53273438 -36.66992188 42.38671875 C-41.1497459 46.93228845 -41.1497459 46.93228845 -45 52 C-45.78100586 50.31152344 -45.78100586 50.31152344 -46 48 C-44.18579102 45.61816406 -44.18579102 45.61816406 -41.50390625 43.015625 C-41.03637436 42.55516785 -40.56884247 42.09471069 -40.08714294 41.62030029 C-38.59024181 40.15140239 -37.07690962 38.7008193 -35.5625 37.25 C-34.5450932 36.25766842 -33.52880197 35.26419171 -32.51367188 34.26953125 C-30.02192521 31.83293067 -27.51514503 29.41246671 -25 27 C-26.72522242 23.20293514 -28.72348831 21.59073018 -32 19 C-33.18575388 17.5578669 -34.37038553 16.11458649 -35.53125 14.65234375 C-37.90515387 11.9817019 -40.66841804 9.77859962 -43.42578125 7.515625 C-43.94527344 7.01546875 -44.46476562 6.5153125 -45 6 C-45 5.34 -45 4.68 -45 4 C-45.99 3.67 -46.98 3.34 -48 3 C-46.24609375 2.30859375 -46.24609375 2.30859375 -44 2 C-42.03515625 3.22265625 -42.03515625 3.22265625 -40.0625 5.0625 C-39.01255859 6.03896484 -39.01255859 6.03896484 -37.94140625 7.03515625 C-35.45479398 9.55178798 -33.26430177 12.28283788 -31 15 C-28.39807537 17.4115399 -25.71789725 19.72047327 -23 22 C-17.30491684 20.61937378 -14.57830327 16.28411539 -11 12 C-8.48612363 9.22932981 -6.64277226 7.21425742 -3 6 C-3 5.34 -3 4.68 -3 4 C-2.34 4 -1.68 4 -1 4 C-0.67 2.68 -0.34 1.36 0 0 Z " fill="#291C13" transform="translate(88,224)"/>
<path d="M0 0 C2.64 0 5.28 0 8 0 C8 14.19 8 28.38 8 43 C5.36 43 2.72 43 0 43 C0 28.81 0 14.62 0 0 Z " fill="#FBFBFB" transform="translate(207,211)"/>
<path d="M0 0 C0.66 0.33 1.32 0.66 2 1 C1.67 2.98 1.34 4.96 1 7 C0.34 7 -0.32 7 -1 7 C-1 9.97 -1 12.94 -1 16 C-2.32 16 -3.64 16 -5 16 C-5.33 14.68 -5.66 13.36 -6 12 C-6.721875 12.680625 -7.44375 13.36125 -8.1875 14.0625 C-11 16 -11 16 -13.6875 15.875 C-16 15 -16 15 -18 13 C-17.625 9.375 -17.625 9.375 -17 6 C-15.68 5.67 -14.36 5.34 -13 5 C-13.33 3.35 -13.66 1.7 -14 0 C-9.20863728 -1.59712091 -4.74150731 -1.58050244 0 0 Z " fill="#131313" transform="translate(257,273)"/>
<path d="M0 0 C5.6621214 0.87897467 8.93559753 5.42281302 12.8125 9.3125 C13.61365234 10.08529297 14.41480469 10.85808594 15.24023438 11.65429688 C15.99240234 12.40388672 16.74457031 13.15347656 17.51953125 13.92578125 C18.21151611 14.61067627 18.90350098 15.29557129 19.61645508 16.0012207 C21 18 21 18 20.7175293 20.25463867 C20.48074463 20.83060791 20.24395996 21.40657715 20 22 C19.34 22 18.68 22 18 22 C18 22.66 18 23.32 18 24 C16.390625 25.55078125 16.390625 25.55078125 14.25 27.3125 C11.08238651 29.98762235 8.56907035 32.73925686 6 36 C5.34 36 4.68 36 4 36 C3.7525 36.639375 3.505 37.27875 3.25 37.9375 C2 40 2 40 -0.125 40.75 C-0.74375 40.8325 -1.3625 40.915 -2 41 C-2.66 39.68 -3.32 38.36 -4 37 C-2.72576172 36.21496094 -2.72576172 36.21496094 -1.42578125 35.4140625 C2.43504001 32.83866895 5.57671192 29.68089068 8.8125 26.375 C9.39708984 25.78976563 9.98167969 25.20453125 10.58398438 24.6015625 C13.66493372 21.58311016 13.66493372 21.58311016 16 18 C15.01 17.67 14.02 17.34 13 17 C11.75492542 15.5583347 10.51461109 14.11134887 9.328125 12.62109375 C6.87321435 9.62465869 4.06856938 6.95802772 1.1875 4.375 C0 3 0 3 0 0 Z " fill="#EBB967" transform="translate(67,206)"/>
<path d="M0 0 C3.76630271 1.25543424 4.59441394 2.88688863 7 6 C9.63425224 8.77289709 12.33431403 11.29794373 15.3125 13.6875 C16.6428125 14.8321875 16.6428125 14.8321875 18 16 C18 16.66 18 17.32 18 18 C19.65 17.67 21.3 17.34 23 17 C23 16.34 23 15.68 23 15 C24.57421875 13.4140625 24.57421875 13.4140625 26.6875 11.625 C27.41324219 11.00753906 28.13898438 10.39007813 28.88671875 9.75390625 C31.23449112 7.80538537 33.59564775 5.8784002 36 4 C36.71264648 5.75683594 36.71264648 5.75683594 37 8 C35.64477539 9.92285156 35.64477539 9.92285156 33.59765625 11.890625 C32.51000977 12.95410156 32.51000977 12.95410156 31.40039062 14.0390625 C30.62888672 14.76867187 29.85738281 15.49828125 29.0625 16.25 C28.29486328 16.99507813 27.52722656 17.74015625 26.73632812 18.5078125 C24.83489246 20.35019737 22.92279952 22.1799648 21 24 C17.46183947 22.48968674 15.16633853 20.42406644 12.453125 17.71875 C11.60878906 16.87699219 10.76445313 16.03523438 9.89453125 15.16796875 C9.02183594 14.28753906 8.14914063 13.40710938 7.25 12.5 C6.36183594 11.61957031 5.47367188 10.73914063 4.55859375 9.83203125 C3.71941406 8.99027344 2.88023438 8.14851563 2.015625 7.28125 C1.24508789 6.50845703 0.47455078 5.73566406 -0.31933594 4.93945312 C-2 3 -2 3 -2 1 C-1.34 0.67 -0.68 0.34 0 0 Z " fill="#E4B363" transform="translate(46,273)"/>
<path d="M0 0 C1.134375 0.020625 2.26875 0.04125 3.4375 0.0625 C3.4375 1.0525 3.4375 2.0425 3.4375 3.0625 C1.7875 3.0625 0.1375 3.0625 -1.5625 3.0625 C-0.7545235 5.20615117 -0.7545235 5.20615117 1.25 5.875 C3.53943688 6.31876595 3.53943688 6.31876595 5.3125 4.625 C8.15303977 2.53636781 9.99046933 2.68782275 13.4375 3.0625 C15.4375 5.0625 15.4375 5.0625 15.6328125 7.2265625 C15.60960937 8.03867187 15.58640625 8.85078125 15.5625 9.6875 C15.54445313 10.50476563 15.52640625 11.32203125 15.5078125 12.1640625 C15.48460937 12.79054688 15.46140625 13.41703125 15.4375 14.0625 C14.179375 14.10375 12.92125 14.145 11.625 14.1875 C10.91730469 14.21070313 10.20960938 14.23390625 9.48046875 14.2578125 C7.4375 14.0625 7.4375 14.0625 4.4375 12.0625 C3.4475 12.7225 2.4575 13.3825 1.4375 14.0625 C-1.75 14.1875 -1.75 14.1875 -4.5625 14.0625 C-4.8925 13.0725 -5.2225 12.0825 -5.5625 11.0625 C-3.5825 11.0625 -1.6025 11.0625 0.4375 11.0625 C-0.93941962 8.30866077 -2.92970042 7.54766899 -5.5625 6.0625 C-4.48849278 0.07874549 -4.48849278 0.07874549 0 0 Z " fill="#373737" transform="translate(342.5625,274.9375)"/>
<path d="M0 0 C0.99 0 1.98 0 3 0 C4.6875 2 4.6875 2 6 4 C6.33 2.68 6.66 1.36 7 0 C9.64 0 12.28 0 15 0 C15.33 1.32 15.66 2.64 16 4 C16.66 2.68 17.32 1.36 18 0 C19.32 0 20.64 0 22 0 C22.33 1.32 22.66 2.64 23 4 C23.66 2.68 24.32 1.36 25 0 C25.99 0 26.98 0 28 0 C27.34 3.63 26.68 7.26 26 11 C23.525 10.505 23.525 10.505 21 10 C20.67 8.68 20.34 7.36 20 6 C19.34 7.65 18.68 9.3 18 11 C16.68 11 15.36 11 14 11 C13.01 8.03 12.02 5.06 11 2 C10.66226562 2.84304688 10.32453125 3.68609375 9.9765625 4.5546875 C9.53054688 5.65039062 9.08453125 6.74609375 8.625 7.875 C8.18414062 8.96554687 7.74328125 10.05609375 7.2890625 11.1796875 C6 14 6 14 4 16 C2.68 16 1.36 16 0 16 C0.33 15.01 0.66 14.02 1 13 C1.99 13 2.98 13 4 13 C3.71125 12.22914063 3.4225 11.45828125 3.125 10.6640625 C2.75375 9.66117187 2.3825 8.65828125 2 7.625 C1.62875 6.62726563 1.2575 5.62953125 0.875 4.6015625 C0 2 0 2 0 0 Z " fill="#D4D4D4" transform="translate(410,278)"/>
<path d="M0 0 C0.66 0 1.32 0 2 0 C2 0.66 2 1.32 2 2 C3.9914056 2.38133299 5.99279077 2.71325582 8 3 C8.33 2.67 8.66 2.34 9 2 C11.9375 1.8125 11.9375 1.8125 15 2 C17 4 17 4 17.1953125 6.1640625 C17.17210937 6.97617187 17.14890625 7.78828125 17.125 8.625 C17.10695313 9.44226563 17.08890625 10.25953125 17.0703125 11.1015625 C17.04710937 11.72804688 17.02390625 12.35453125 17 13 C13.33333333 13 9.66666667 13 6 13 C4.989375 13.020625 3.97875 13.04125 2.9375 13.0625 C0 13 0 13 -1 12 C-1.23287008 10.31816052 -1.41264166 8.6287584 -1.5625 6.9375 C-1.64628906 6.01839844 -1.73007812 5.09929687 -1.81640625 4.15234375 C-1.90728516 3.08693359 -1.90728516 3.08693359 -2 2 C-1.34 2 -0.68 2 0 2 C0 1.34 0 0.68 0 0 Z " fill="#303030" transform="translate(382,276)"/>
<path d="M0 0 C2.69374642 0.25654728 4.31699635 0.88229413 6.625 2.25 C7.285 1.59 7.945 0.93 8.625 0.25 C11.25 0.125 11.25 0.125 13.625 0.25 C13.955 0.91 14.285 1.57 14.625 2.25 C13.305 2.25 11.985 2.25 10.625 2.25 C12.275 3.9 13.925 5.55 15.625 7.25 C14.965 8.57 14.305 9.89 13.625 11.25 C10.95833333 11.25 8.29166667 11.25 5.625 11.25 C5.00625 11.28480469 4.3875 11.31960938 3.75 11.35546875 C3.04875 11.38253906 2.3475 11.40960938 1.625 11.4375 C0.573125 11.48970703 0.573125 11.48970703 -0.5 11.54296875 C-1.11875 11.44628906 -1.7375 11.34960938 -2.375 11.25 C-4.67663882 7.79754176 -4.71990322 6.30261287 -4.375 2.25 C-2.375 0.25 -2.375 0.25 0 0 Z " fill="#2E2E2E" transform="translate(216.375,277.75)"/>
<path d="M0 0 C3.375 -0.125 3.375 -0.125 7 0 C9 2 9 2 9.1953125 5.4765625 C9.18201493 6.85950968 9.15816232 8.24238654 9.125 9.625 C9.11597656 10.33140625 9.10695312 11.0378125 9.09765625 11.765625 C9.07407603 13.51056098 9.03820461 15.25532295 9 17 C5.7 17 2.4 17 -1 17 C-1.02691685 14.54159395 -1.04679802 12.08348118 -1.0625 9.625 C-1.07087891 8.92632812 -1.07925781 8.22765625 -1.08789062 7.5078125 C-1.11328125 2.2265625 -1.11328125 2.2265625 0 0 Z " fill="#2A2A2A" transform="translate(162,272)"/>
<path d="M0 0 C0 4.62 0 9.24 0 14 C-1.32 14 -2.64 14 -4 14 C-4 10.7 -4 7.4 -4 4 C-5.65 3.67 -7.3 3.34 -9 3 C-9 6.63 -9 10.26 -9 14 C-10.32 14 -11.64 14 -13 14 C-13 10.37 -13 6.74 -13 3 C-14.32 3 -15.64 3 -17 3 C-17 2.01 -17 1.02 -17 0 C-15.10507254 -0.19644384 -13.20899097 -0.38177288 -11.3125 -0.5625 C-9.72888672 -0.71912109 -9.72888672 -0.71912109 -8.11328125 -0.87890625 C-5 -1 -5 -1 0 0 Z " fill="#8E8E8E" transform="translate(281,275)"/>
<path d="M0 0 C0.5534764 2.07553648 1 3.84365964 1 6 C2.32 6 3.64 6 5 6 C4.814375 6.78375 4.62875 7.5675 4.4375 8.375 C3.74037734 10.97089775 3.74037734 10.97089775 5 13 C3.20841511 13.02696365 1.41671527 13.04637917 -0.375 13.0625 C-1.37273437 13.07410156 -2.37046875 13.08570313 -3.3984375 13.09765625 C-6 13 -6 13 -8 12 C-7.88652381 10.02013918 -7.7589065 8.04108402 -7.625 6.0625 C-7.55539062 4.96035156 -7.48578125 3.85820312 -7.4140625 2.72265625 C-7.27742188 1.82417969 -7.14078125 0.92570312 -7 0 C-4.3333581 -1.33332095 -2.83319697 -0.67102033 0 0 Z " fill="#E0E0E0" transform="translate(325,276)"/>
<path d="M0 0 C1.65 0 3.3 0 5 0 C5.67528223 1.57967807 6.33989694 3.16391903 7 4.75 C7.37125 5.63171875 7.7425 6.5134375 8.125 7.421875 C9 10 9 10 9 14 C8.01 14 7.02 14 6 14 C5.67 13.34 5.34 12.68 5 12 C2.47266765 11.34444881 2.47266765 11.34444881 0 11 C-0.33 11.99 -0.66 12.98 -1 14 C-1.99 14 -2.98 14 -4 14 C-3.24964259 10.88200997 -2.36636589 7.81929597 -1.4375 4.75 C-1.16808594 3.85796875 -0.89867187 2.9659375 -0.62109375 2.046875 C-0.41613281 1.37140625 -0.21117187 0.6959375 0 0 Z " fill="#C4C4C4" transform="translate(150,275)"/>
<path d="M0 0 C2.29141286 -0.05384521 4.58318188 -0.09272087 6.875 -0.125 C8.78925781 -0.15980469 8.78925781 -0.15980469 10.7421875 -0.1953125 C14 0 14 0 16 2 C15.01 2 14.02 2 13 2 C13 6.95 13 11.9 13 17 C12.34 17 11.68 17 11 17 C10.32968281 15.0429132 9.66385317 13.08428887 9 11.125 C8.62875 10.03445313 8.2575 8.94390625 7.875 7.8203125 C7 5 7 5 7 3 C5.35 3 3.7 3 2 3 C1.67 3.99 1.34 4.98 1 6 C0.34 5.34 -0.32 4.68 -1 4 C-0.625 1.875 -0.625 1.875 0 0 Z " fill="#080808" transform="translate(148,272)"/>
<path d="M0 0 C4.95 0 9.9 0 15 0 C14 4 14 4 11 6 C8.3125 6.125 8.3125 6.125 6 6 C5.67 8.31 5.34 10.62 5 13 C3 10 3 10 3 6 C1.35 6 -0.3 6 -2 6 C-2 5.01 -2 4.02 -2 3 C-1.34 2.67 -0.68 2.34 0 2 C0 1.34 0 0.68 0 0 Z " fill="#080808" transform="translate(422,272)"/>
<path d="M0 0 C2 2 2 2 2.375 4.4375 C2 7 2 7 0.3125 8.875 C-2.61922354 10.30124388 -3.95326554 10.04230389 -7 9 C-7.66 8.34 -8.32 7.68 -9 7 C-8.75 3.4375 -8.75 3.4375 -8 0 C-5.09288879 -1.4535556 -3.10402897 -0.71133997 0 0 Z " fill="#E5E5E5" transform="translate(248,279)"/>
<path d="M0 0 C0.99 0 1.98 0 3 0 C3.33 1.65 3.66 3.3 4 5 C4.66 5 5.32 5 6 5 C6.33 3.35 6.66 1.7 7 0 C7.99 0 8.98 0 10 0 C10.31306967 4.59168852 9.94307997 6.51190522 7 10 C5.96958573 11.98450156 4.96314063 13.98199105 4 16 C2.68 16 1.36 16 0 16 C0 15.01 0 14.02 0 13 C0.99 13 1.98 13 3 13 C2.7834375 12.39671875 2.566875 11.7934375 2.34375 11.171875 C2.0653125 10.37265625 1.786875 9.5734375 1.5 8.75 C1.08234375 7.56664062 1.08234375 7.56664062 0.65625 6.359375 C0 4 0 4 0 0 Z " fill="#F5F5F5" transform="translate(187,278)"/>
<path d="M0 0 C1.134375 0.020625 2.26875 0.04125 3.4375 0.0625 C3.4375 1.0525 3.4375 2.0425 3.4375 3.0625 C1.7875 3.0625 0.1375 3.0625 -1.5625 3.0625 C-0.7375 3.784375 0.0875 4.50625 0.9375 5.25 C3.4375 8.0625 3.4375 8.0625 3.75 10.875 C3.5953125 11.9578125 3.5953125 11.9578125 3.4375 13.0625 C0.72870665 14.41689668 -1.57183268 14.12751451 -4.5625 14.0625 C-4.8925 13.0725 -5.2225 12.0825 -5.5625 11.0625 C-3.5825 11.0625 -1.6025 11.0625 0.4375 11.0625 C-0.93941962 8.30866077 -2.92970042 7.54766899 -5.5625 6.0625 C-4.48849278 0.07874549 -4.48849278 0.07874549 0 0 Z " fill="#DEDEDE" transform="translate(342.5625,274.9375)"/>
<path d="M0 0 C2.33294775 -0.04241723 4.66702567 -0.04092937 7 0 C8 1 8 1 8.09765625 3.28515625 C8.08605469 4.20167969 8.07445312 5.11820312 8.0625 6.0625 C8.05347656 6.98160156 8.04445313 7.90070313 8.03515625 8.84765625 C8.02355469 9.55792969 8.01195312 10.26820313 8 11 C1.84765625 11.09765625 1.84765625 11.09765625 0 11 C-1 10 -1 10 -1.0625 7.4375 C-1.041875 6.633125 -1.02125 5.82875 -1 5 C0.98 4.67 2.96 4.34 5 4 C5 3.34 5 2.68 5 2 C3.35 2.33 1.7 2.66 0 3 C0 2.01 0 1.02 0 0 Z " fill="#E7E7E7" transform="translate(441,278)"/>
<path d="M0 0 C1.670625 0.061875 1.670625 0.061875 3.375 0.125 C3.705 2.105 4.035 4.085 4.375 6.125 C2.065 6.125 -0.245 6.125 -2.625 6.125 C-2.295 6.785 -1.965 7.445 -1.625 8.125 C0.355 8.125 2.335 8.125 4.375 8.125 C4.045 9.115 3.715 10.105 3.375 11.125 C-2.025 11.485 -2.025 11.485 -4.5 10 C-6.13031294 7.28281176 -5.95515665 5.22847254 -5.625 2.125 C-3.625 0.125 -3.625 0.125 0 0 Z " fill="#E9E9E9" transform="translate(294.625,277.875)"/>
<path d="M0 0 C2.875 -0.125 2.875 -0.125 6 0 C8 2 8 2 8.1953125 4.1640625 C8.13020833 6.44270833 8.06510417 8.72135417 8 11 C5.03 11 2.06 11 -1 11 C-1.04254356 9.00045254 -1.04080783 6.99958364 -1 5 C0 4 0 4 2.5625 3.9375 C3.7690625 3.9684375 3.7690625 3.9684375 5 4 C5 3.34 5 2.68 5 2 C3.35 2 1.7 2 0 2 C0 1.34 0 0.68 0 0 Z " fill="#E4E4E4" transform="translate(391,278)"/>
<path d="M0 0 C2.64 0 5.28 0 8 0 C9 1 9 1 9.0625 4.0625 C9.041875 5.031875 9.02125 6.00125 9 7 C8.01 7.495 8.01 7.495 7 8 C7 6.35 7 4.7 7 3 C5.68 3 4.36 3 3 3 C3 4.98 3 6.96 3 9 C3.99 9 4.98 9 6 9 C6 9.66 6 10.32 6 11 C5.01 11 4.02 11 3 11 C3 12.65 3 14.3 3 16 C2.01 16 1.02 16 0 16 C0 10.72 0 5.44 0 0 Z " fill="#DFDFDF" transform="translate(200,278)"/>
<path d="M0 0 C6.93359375 -0.09765625 6.93359375 -0.09765625 9 0 C10 1 10 1 10.09765625 3.28515625 C10.08605469 4.20167969 10.07445312 5.11820312 10.0625 6.0625 C10.05347656 6.98160156 10.04445313 7.90070313 10.03515625 8.84765625 C10.02355469 9.55792969 10.01195312 10.26820313 10 11 C9.01 11 8.02 11 7 11 C7 8.36 7 5.72 7 3 C5.68 3 4.36 3 3 3 C3 5.64 3 8.28 3 11 C2.01 11 1.02 11 0 11 C0 7.37 0 3.74 0 0 Z " fill="#D1D1D1" transform="translate(361,278)"/>
<path d="M0 0 C2.5625 0.25 2.5625 0.25 5.5625 2.25 C5.5625 3.57 5.5625 4.89 5.5625 6.25 C3.2525 6.25 0.9425 6.25 -1.4375 6.25 C-1.1075 6.91 -0.7775 7.57 -0.4375 8.25 C2.08983235 8.90555119 2.08983235 8.90555119 4.5625 9.25 C4.2325 9.91 3.9025 10.57 3.5625 11.25 C0.6875 11.4375 0.6875 11.4375 -2.4375 11.25 C-4.73913882 7.79754176 -4.78240322 6.30261287 -4.4375 2.25 C-2.4375 0.25 -2.4375 0.25 0 0 Z " fill="#E4E4E4" transform="translate(216.4375,277.75)"/>
<path d="M0 0 C0.928125 0.20625 1.85625 0.4125 2.8125 0.625 C3.1425 2.275 3.4725 3.925 3.8125 5.625 C1.8325 5.955 -0.1475 6.285 -2.1875 6.625 C-2.1875 7.285 -2.1875 7.945 -2.1875 8.625 C-0.5375 8.625 1.1125 8.625 2.8125 8.625 C2.4825 9.285 2.1525 9.945 1.8125 10.625 C-0.92836056 10.84723194 -2.62713721 10.97281139 -5 9.5 C-6.73208662 6.76512639 -6.59123601 4.78759871 -6.1875 1.625 C-3.1875 -0.375 -3.1875 -0.375 0 0 Z " fill="#F8F8F8" transform="translate(467.1875,278.375)"/>
<path d="M0 0 C2.41498287 1.24644277 3.47835228 2.73832103 4.9375 5 C1.92718256 5.93423645 1.07099732 6.04449911 -2.0625 5 C-6.17406524 7.70497713 -8.94409456 11.24192164 -12.0625 15 C-14.375 16.875 -14.375 16.875 -16.0625 18 C-16.0625 16.68 -16.0625 15.36 -16.0625 14 C-15.4025 14 -14.7425 14 -14.0625 14 C-14.0625 13.34 -14.0625 12.68 -14.0625 12 C-9.76017442 7.23255814 -9.76017442 7.23255814 -6.0625 6 C-6.0625 5.34 -6.0625 4.68 -6.0625 4 C-2.8625 0 -2.8625 0 0 0 Z " fill="#282727" transform="translate(91.0625,234)"/>
<path d="M0 0 C0.33 0.99 0.66 1.98 1 3 C0.43490723 3.55985596 -0.13018555 4.11971191 -0.71240234 4.6965332 C-3.26921512 7.23256957 -5.82214364 9.77248128 -8.375 12.3125 C-9.26445313 13.19357422 -10.15390625 14.07464844 -11.0703125 14.98242188 C-12.34648438 16.25375977 -12.34648438 16.25375977 -13.6484375 17.55078125 C-14.43395996 18.33106689 -15.21948242 19.11135254 -16.02880859 19.9152832 C-18.14761622 22.03877052 -18.14761622 22.03877052 -20 25 C-20.78100586 23.31152344 -20.78100586 23.31152344 -21 21 C-19.18579102 18.61816406 -19.18579102 18.61816406 -16.50390625 16.015625 C-16.03637436 15.55516785 -15.56884247 15.09471069 -15.08714294 14.62030029 C-13.59024181 13.15140239 -12.07690962 11.7008193 -10.5625 10.25 C-9.5450932 9.25766842 -8.52880197 8.26419171 -7.51367188 7.26953125 C-5.02192521 4.83293067 -2.51514503 2.41246671 0 0 Z " fill="#2C201C" transform="translate(63,251)"/>
<path d="M0 0 C3.63 0 7.26 0 11 0 C11 0.66 11 1.32 11 2 C9.68 2 8.36 2 7 2 C7 5.96 7 9.92 7 14 C6.01 14 5.02 14 4 14 C4 10.37 4 6.74 4 3 C2.68 3 1.36 3 0 3 C0 2.01 0 1.02 0 0 Z " fill="#E3E3E3" transform="translate(264,275)"/>
<path d="M0 0 C7.48291572 6.15034169 7.48291572 6.15034169 10 10 C8.68 10.99 7.36 11.98 6 13 C6 12.34 6 11.68 6 11 C5.4225 10.7525 4.845 10.505 4.25 10.25 C1.62776908 8.79320504 -0.09253081 7.31621258 -2 5 C-2 3.68 -2 2.36 -2 1 C-1.34 0.67 -0.68 0.34 0 0 Z " fill="#DBDBDA" transform="translate(52,238)"/>
<path d="M0 0 C2.6875 -0.3125 2.6875 -0.3125 5 0 C4.67 1.98 4.34 3.96 4 6 C3.34 6 2.68 6 2 6 C2 8.97 2 11.94 2 15 C1.01 15 0.02 15 -1 15 C-1 12.03 -1 9.06 -1 6 C-1.66 5.67 -2.32 5.34 -3 5 C-1.8125 2.5 -1.8125 2.5 0 0 Z " fill="#E3E3E3" transform="translate(254,274)"/>
<path d="M0 0 C1.32 0 2.64 0 4 0 C4 4.95 4 9.9 4 15 C2.68 15 1.36 15 0 15 C0 10.05 0 5.1 0 0 Z " fill="#BEBEBE" transform="translate(283,274)"/>
<path d="M0 0 C3.0625 0.3125 3.0625 0.3125 4.9375 1.625 C6.0625 3.3125 6.0625 3.3125 6.0625 6.3125 C2.1025 6.3125 -1.8575 6.3125 -5.9375 6.3125 C-4.47848361 0.47643443 -4.47848361 0.47643443 0 0 Z " fill="#171717" transform="translate(236.9375,228.6875)"/>
<path d="M0 0 C0 0.99 0 1.98 0 3 C-1.65 2.67 -3.3 2.34 -5 2 C-5 2.66 -5 3.32 -5 4 C-3.35 4.33 -1.7 4.66 0 5 C0 6.65 0 8.3 0 10 C-2.31 10.33 -4.62 10.66 -7 11 C-7.33 10.01 -7.66 9.02 -8 8 C-5.525 8.495 -5.525 8.495 -3 9 C-3 8.34 -3 7.68 -3 7 C-5.475 6.01 -5.475 6.01 -8 5 C-7.625 3.0625 -7.625 3.0625 -7 1 C-4.53721199 -0.231394 -2.7204945 -0.07159196 0 0 Z " fill="#D5D5D5" transform="translate(309,278)"/>
<path d="M0 0 C0.33 0.99 0.66 1.98 1 3 C1.99 3.33 2.98 3.66 4 4 C3.01 4.33 2.02 4.66 1 5 C-1.80784916 7.58617686 -4.2111468 10.27509104 -6.5 13.3125 C-9 16 -9 16 -11.8125 16.375 C-12.534375 16.25125 -13.25625 16.1275 -14 16 C-8.07058824 8.75294118 -8.07058824 8.75294118 -5 6 C-4.34 6 -3.68 6 -3 6 C-3 5.34 -3 4.68 -3 4 C-2.34 4 -1.68 4 -1 4 C-0.67 2.68 -0.34 1.36 0 0 Z " fill="#312110" transform="translate(88,224)"/>
<path d="M0 0 C2.875 -0.125 2.875 -0.125 6 0 C8 2 8 2 8.1953125 4.1640625 C8.17210937 4.97617187 8.14890625 5.78828125 8.125 6.625 C8.10695313 7.44226563 8.08890625 8.25953125 8.0703125 9.1015625 C8.03550781 10.04128906 8.03550781 10.04128906 8 11 C5.36 11 2.72 11 0 11 C-0.33 9.68 -0.66 8.36 -1 7 C-0.34 6.67 0.32 6.34 1 6 C1 6.99 1 7.98 1 9 C1.99 8.67 2.98 8.34 4 8 C4.33 6.02 4.66 4.04 5 2 C3.35 2 1.7 2 0 2 C0 1.34 0 0.68 0 0 Z " fill="#EDEDED" transform="translate(350,278)"/>
<path d="M0 0 C0.66 0.33 1.32 0.66 2 1 C0.92807816 2.3218362 -0.15802695 3.63217927 -1.25 4.9375 C-1.85328125 5.66839844 -2.4565625 6.39929688 -3.078125 7.15234375 C-5.10741134 9.10326334 -6.254407 9.61731779 -9 10 C-9 10.99 -9 11.98 -9 13 C-9.99 13.33 -10.98 13.66 -12 14 C-12.66 11.69 -13.32 9.38 -14 7 C-12.4221875 6.9071875 -12.4221875 6.9071875 -10.8125 6.8125 C-6.33592022 5.8584748 -4.95810003 4.38068574 -2 1 C-1.34 0.67 -0.68 0.34 0 0 Z " fill="#1B130A" transform="translate(76,239)"/>
<path d="M0 0 C0.66 0 1.32 0 2 0 C2 0.66 2 1.32 2 2 C2.99 2 3.98 2 5 2 C5 2.66 5 3.32 5 4 C4.01 4 3.02 4 2 4 C2 6.31 2 8.62 2 11 C2.99 11 3.98 11 5 11 C5 11.66 5 12.32 5 13 C3.33388095 13.042721 1.66617115 13.04063832 0 13 C-1.66342837 11.33657163 -1.36048097 9.2174291 -1.5625 6.9375 C-1.64628906 6.01839844 -1.73007812 5.09929687 -1.81640625 4.15234375 C-1.90728516 3.08693359 -1.90728516 3.08693359 -2 2 C-1.34 2 -0.68 2 0 2 C0 1.34 0 0.68 0 0 Z " fill="#ECECEC" transform="translate(382,276)"/>
<path d="M0 0 C1.65 0 3.3 0 5 0 C5.33 0.66 5.66 1.32 6 2 C4.68 2 3.36 2 2 2 C3.65 3.65 5.3 5.3 7 7 C6.34 8.32 5.68 9.64 5 11 C3.02 11 1.04 11 -1 11 C-1 10.34 -1 9.68 -1 9 C0.65 9 2.3 9 4 9 C2.74458443 6.48916886 1.49936512 6.12874554 -1 5 C-0.67 3.35 -0.34 1.7 0 0 Z " fill="#E7E7E7" transform="translate(225,278)"/>
<path d="M0 0 C0.66 0 1.32 0 2 0 C2 0.66 2 1.32 2 2 C2.99 2 3.98 2 5 2 C5 2.66 5 3.32 5 4 C4.01 4 3.02 4 2 4 C2 6.31 2 8.62 2 11 C2.99 11 3.98 11 5 11 C5 11.66 5 12.32 5 13 C2.03 12.505 2.03 12.505 -1 12 C-1.33 8.7 -1.66 5.4 -2 2 C-1.34 2 -0.68 2 0 2 C0 1.34 0 0.68 0 0 Z " fill="#D1D1D1" transform="translate(180,276)"/>
<path d="M0 0 C4.06853343 1.35617781 5.46850875 3.60247226 8 7 C8.8125 9.375 8.8125 9.375 9 11 C5.43235179 10.42380903 3.74840503 9.13030516 1.25 6.5625 C0.63640625 5.94503906 0.0228125 5.32757813 -0.609375 4.69140625 C-2 3 -2 3 -2 1 C-1.34 0.67 -0.68 0.34 0 0 Z " fill="#F0BC6A" transform="translate(46,273)"/>
<path d="M0 0 C0.66 0 1.32 0 2 0 C2.33 0.66 2.66 1.32 3 2 C3.99 2.33 4.98 2.66 6 3 C6 2.34 6 1.68 6 1 C6.99 1 7.98 1 9 1 C8.814375 1.78375 8.62875 2.5675 8.4375 3.375 C7.74037734 5.97089775 7.74037734 5.97089775 9 8 C5.37 8 1.74 8 -2 8 C-1.34 7.34 -0.68 6.68 0 6 C0.99 6 1.98 6 3 6 C3 5.34 3 4.68 3 4 C1.68 3.67 0.36 3.34 -1 3 C-0.67 2.01 -0.34 1.02 0 0 Z " fill="#EDEDED" transform="translate(321,281)"/>
<path d="M0 0 C0.73828125 1.734375 0.73828125 1.734375 1 4 C-0.58203125 6.140625 -0.58203125 6.140625 -2.8125 8.25 C-3.54082031 8.95640625 -4.26914063 9.6628125 -5.01953125 10.390625 C-7 12 -7 12 -9 12 C-8.52379711 7.62346871 -7.33100111 5.93461995 -3.9375 3.1875 C-3.20402344 2.58292969 -2.47054687 1.97835938 -1.71484375 1.35546875 C-1.14894531 0.90816406 -0.58304688 0.46085937 0 0 Z " fill="#EFBE6A" transform="translate(82,277)"/>
<path d="M0 0 C0.33 0.99 0.66 1.98 1 3 C-0.328125 4.97265625 -0.328125 4.97265625 -2.25 7.0625 C-2.87390625 7.75472656 -3.4978125 8.44695312 -4.140625 9.16015625 C-6 11 -6 11 -9 13 C-10.19232613 15.05003955 -10.19232613 15.05003955 -11 17 C-11.66 15.68 -12.32 14.36 -13 13 C-8.71 8.71 -4.42 4.42 0 0 Z " fill="#311E0B" transform="translate(62,261)"/>
<path d="M0 0 C1.65 0 3.3 0 5 0 C5.66 2.31 6.32 4.62 7 7 C5.02 7.33 3.04 7.66 1 8 C-1.125 3.375 -1.125 3.375 0 0 Z " fill="#D8D8D8" transform="translate(150,275)"/>
<path d="M0 0 C0.99 0 1.98 0 3 0 C3 4.95 3 9.9 3 15 C2.01 15 1.02 15 0 15 C0 10.05 0 5.1 0 0 Z " fill="#D7D7D7" transform="translate(168,274)"/>
<path d="M0 0 C0.99 0 1.98 0 3 0 C3 4.95 3 9.9 3 15 C2.01 15 1.02 15 0 15 C0 10.05 0 5.1 0 0 Z " fill="#E0E0E0" transform="translate(161,274)"/>
<path d="M0 0 C0.33 0 0.66 0 1 0 C1 5.28 1 10.56 1 16 C0.01 14.68 -0.98 13.36 -2 12 C-3.32 12 -4.64 12 -6 12 C-4.78273716 8.5354827 -3.56145682 6.56145682 -1 4 C-0.28552357 1.89667109 -0.28552357 1.89667109 0 0 Z " fill="#363636" transform="translate(199,278)"/>
<path d="M0 0 C2.31 0 4.62 0 7 0 C7 0.99 7 1.98 7 3 C5.68 3 4.36 3 3 3 C3 5.64 3 8.28 3 11 C2.01 11 1.02 11 0 11 C0 7.37 0 3.74 0 0 Z " fill="#DADADA" transform="translate(453,278)"/>
<path d="M0 0 C2.31 0 4.62 0 7 0 C7 0.99 7 1.98 7 3 C5.68 3 4.36 3 3 3 C3 5.64 3 8.28 3 11 C2.01 11 1.02 11 0 11 C0 7.37 0 3.74 0 0 Z " fill="#EEEEEE" transform="translate(402,278)"/>
<path d="M0 0 C0.99 0.33 1.98 0.66 3 1 C2.55269531 1.37511719 2.10539062 1.75023437 1.64453125 2.13671875 C-2.07162561 5.28237818 -5.59909623 8.50959876 -9 12 C-10.66666667 13.66666667 -12.33333333 15.33333333 -14 17 C-14 14 -14 14 -13 12 C-12.34 12 -11.68 12 -11 12 C-10.67 11.01 -10.34 10.02 -10 9 C-7.5625 6.3125 -7.5625 6.3125 -5 4 C-4.34 4 -3.68 4 -3 4 C-2.67 3.01 -2.34 2.02 -2 1 C-1.34 0.67 -0.68 0.34 0 0 Z " fill="#222323" transform="translate(109,255)"/>
<path d="M0 0 C0.33 0 0.66 0 1 0 C1 2.31 1 4.62 1 7 C-0.98 7.99 -0.98 7.99 -3 9 C-3 8.34 -3 7.68 -3 7 C-3.99 7 -4.98 7 -6 7 C-6 5.02 -6 3.04 -6 1 C-4.68 1 -3.36 1 -2 1 C-1.67 2.32 -1.34 3.64 -1 5 C-0.67 3.35 -0.34 1.7 0 0 Z " fill="#6B6B6B" transform="translate(209,280)"/>
<path d="M0 0 C0.66 0.33 1.32 0.66 2 1 C1.59007812 1.47050781 1.18015625 1.94101563 0.7578125 2.42578125 C-0.05042969 3.35970703 -0.05042969 3.35970703 -0.875 4.3125 C-1.40867187 4.92738281 -1.94234375 5.54226562 -2.4921875 6.17578125 C-4.1640447 8.13498212 -4.1640447 8.13498212 -6 11 C-6.66 11 -7.32 11 -8 11 C-8 11.66 -8 12.32 -8 13 C-8.66 13 -9.32 13 -10 13 C-10.33 13.66 -10.66 14.32 -11 15 C-11 13.68 -11 12.36 -11 11 C-9.37609523 9.61490475 -7.69859667 8.29241051 -6 7 C-3.91317259 4.73723398 -1.947822 2.38290252 0 0 Z " fill="#35220C" transform="translate(61,212)"/>
<path d="M0 0 C2.64 0.33 5.28 0.66 8 1 C7.360625 1.165 6.72125 1.33 6.0625 1.5 C3.83880759 2.781786 3.83880759 2.781786 3.51171875 4.9140625 C3.2724022 6.93575155 3.13106972 8.96841939 3 11 C2.01 11 1.02 11 0 11 C0 7.37 0 3.74 0 0 Z " fill="#E2E2E2" transform="translate(361,278)"/>
<path d="M0 0 C3.71599191 -0.20086443 4.77208445 -0.1519437 8 2 C8 3.32 8 4.64 8 6 C7.01 6 6.02 6 5 6 C5 5.34 5 4.68 5 4 C2.69 4 0.38 4 -2 4 C-1.34 2.68 -0.68 1.36 0 0 Z " fill="#B8B8B8" transform="translate(214,278)"/>
<path d="M0 0 C3.91939465 3.80411834 7.49102731 7.81576108 11 12 C6.69032084 12 5.10253255 9.83274712 2 7 C1.67 6.34 1.34 5.68 1 5 C0.01 4.34 -0.98 3.68 -2 3 C-1.34 3 -0.68 3 0 3 C0 2.01 0 1.02 0 0 Z " fill="#36281F" transform="translate(67,249)"/>
<path d="M0 0 C2 1 2 1 3 3 C3.06950541 4.54023996 3.08452357 6.08334988 3.0625 7.625 C3.05347656 8.44226563 3.04445312 9.25953125 3.03515625 10.1015625 C3.02355469 10.72804688 3.01195312 11.35453125 3 12 C2.34 12 1.68 12 1 12 C0.47007308 10.54494642 -0.0486789 9.08581873 -0.5625 7.625 C-0.85253906 6.81289063 -1.14257812 6.00078125 -1.44140625 5.1640625 C-2 3 -2 3 -1 1 C-0.67 0.67 -0.34 0.34 0 0 Z " fill="#101010" transform="translate(158,277)"/>
<path d="M0 0 C0.99 0 1.98 0 3 0 C2.34 3.63 1.68 7.26 1 11 C-0.32 11 -1.64 11 -3 11 C-2.11223998 7.30099992 -1.05418136 3.65449539 0 0 Z " fill="#E4E4E4" transform="translate(435,278)"/>
<path d="M0 0 C2.475 0.99 2.475 0.99 5 2 C5 2.66 5 3.32 5 4 C0.71 4 -3.58 4 -8 4 C-8.33 3.01 -8.66 2.02 -9 1 C-7.700625 1.020625 -6.40125 1.04125 -5.0625 1.0625 C-3.70834367 1.08399454 -2.35243917 1.07148199 -1 1 C-0.67 0.67 -0.34 0.34 0 0 Z " fill="#1E1E1E" transform="translate(301,283)"/>
<path d="M0 0 C0.99 0 1.98 0 3 0 C3 3.63 3 7.26 3 11 C2.01 11 1.02 11 0 11 C0 7.37 0 3.74 0 0 Z " fill="#EBEBEB" transform="translate(375,278)"/>
<path d="M0 0 C0.33 0.66 0.66 1.32 1 2 C-1.56428003 6.17882671 -4.01930733 9.12505529 -8 12 C-8.66 11.34 -9.32 10.68 -10 10 C-6.7 6.7 -3.4 3.4 0 0 Z " fill="#35200C" transform="translate(79,284)"/>
<path d="M0 0 C0.66 0 1.32 0 2 0 C4.21747812 2.30276574 4.96760006 3.52480092 5.1875 6.75 C5.125625 7.4925 5.06375 8.235 5 9 C3.68 9 2.36 9 1 9 C0.67 6.03 0.34 3.06 0 0 Z " fill="#ECECEC" transform="translate(423,280)"/>
<path d="M0 0 C0.33 1.32 0.66 2.64 1 4 C2.98 3.67 4.96 3.34 7 3 C6.67 4.32 6.34 5.64 6 7 C3.36 6.67 0.72 6.34 -2 6 C-1.125 1.125 -1.125 1.125 0 0 Z " fill="#F3F3F3" transform="translate(150,279)"/>
<path d="M0 0 C1.32 0.33 2.64 0.66 4 1 C4 4.63 4 8.26 4 12 C3.67 12 3.34 12 3 12 C2.67 9.69 2.34 7.38 2 5 C1.67 7.31 1.34 9.62 1 12 C0.67 12 0.34 12 0 12 C0 8.04 0 4.08 0 0 Z " fill="#444444" transform="translate(449,277)"/>
<path d="M0 0 C0.99 0.33 1.98 0.66 3 1 C3 1.66 3 2.32 3 3 C4.65 2.67 6.3 2.34 8 2 C8 2.66 8 3.32 8 4 C6.02 4.33 4.04 4.66 2 5 C1.67 6.32 1.34 7.64 1 9 C0.67 8.01 0.34 7.02 0 6 C-0.99 6.495 -0.99 6.495 -2 7 C-1.34 4.69 -0.68 2.38 0 0 Z " fill="#292929" transform="translate(438,278)"/>
<path d="M0 0 C0.928125 0.20625 1.85625 0.4125 2.8125 0.625 C2.4825 1.615 2.1525 2.605 1.8125 3.625 C0.14638095 3.667721 -1.52132885 3.66563832 -3.1875 3.625 C-3.5175 3.295 -3.8475 2.965 -4.1875 2.625 C-4.5175 4.275 -4.8475 5.925 -5.1875 7.625 C-5.5175 7.625 -5.8475 7.625 -6.1875 7.625 C-6.375 4.75 -6.375 4.75 -6.1875 1.625 C-3.1875 -0.375 -3.1875 -0.375 0 0 Z " fill="#A6A6A6" transform="translate(467.1875,278.375)"/>
<path d="M0 0 C0.99 0 1.98 0 3 0 C3 1.65 3 3.3 3 5 C0.69 5.33 -1.62 5.66 -4 6 C-4.33 5.01 -4.66 4.02 -5 3 C-2.525 3.495 -2.525 3.495 0 4 C0 2.68 0 1.36 0 0 Z " fill="#DDDDDD" transform="translate(306,283)"/>
<path d="M0 0 C1.134375 0.020625 2.26875 0.04125 3.4375 0.0625 C3.4375 1.0525 3.4375 2.0425 3.4375 3.0625 C1.7875 3.0625 0.1375 3.0625 -1.5625 3.0625 C-1.8925 3.7225 -2.2225 4.3825 -2.5625 5.0625 C-2.8925 4.4025 -3.2225 3.7425 -3.5625 3.0625 C-4.2225 4.0525 -4.8825 5.0425 -5.5625 6.0625 C-4.48849278 0.07874549 -4.48849278 0.07874549 0 0 Z " fill="#BCBCBC" transform="translate(342.5625,274.9375)"/>
<path d="M0 0 C-1.35468295 4.87685861 -3.71675909 6.48592381 -8 9 C-8 6 -8 6 -6.7578125 4.39453125 C-5.94957031 3.61142578 -5.94957031 3.61142578 -5.125 2.8125 C-4.59132813 2.28269531 -4.05765625 1.75289063 -3.5078125 1.20703125 C-2 0 -2 0 0 0 Z " fill="#F1F1F1" transform="translate(105,257)"/>
<path d="M0 0 C1.670625 0.061875 1.670625 0.061875 3.375 0.125 C2.715 1.445 2.055 2.765 1.375 4.125 C-0.275 4.125 -1.925 4.125 -3.625 4.125 C-4.285 5.445 -4.945 6.765 -5.625 8.125 C-5.75 5.25 -5.75 5.25 -5.625 2.125 C-3.625 0.125 -3.625 0.125 0 0 Z " fill="#939393" transform="translate(294.625,277.875)"/>
<path d="M0 0 C1.32 0 2.64 0 4 0 C4 1.98 4 3.96 4 6 C2.02 6.99 2.02 6.99 0 8 C0 5.36 0 2.72 0 0 Z " fill="#232323" transform="translate(364,281)"/>
<path d="M0 0 C0.99 0 1.98 0 3 0 C3 1.98 3 3.96 3 6 C0.92446352 6.5534764 -0.84365964 7 -3 7 C-3 6.34 -3 5.68 -3 5 C-2.34 5 -1.68 5 -1 5 C-0.67 3.35 -0.34 1.7 0 0 Z " fill="#B0B0B0" transform="translate(194,278)"/>
<path d="M0 0 C0.33 0 0.66 0 1 0 C1 2.97 1 5.94 1 9 C-1.31 8.34 -3.62 7.68 -6 7 C-6 6.01 -6 5.02 -6 4 C-4.68 4 -3.36 4 -2 4 C-2 4.99 -2 5.98 -2 7 C-1.34 7 -0.68 7 0 7 C0 4.69 0 2.38 0 0 Z " fill="#939393" transform="translate(398,280)"/>
<path d="M0 0 C1.65 0 3.3 0 5 0 C5 1.65 5 3.3 5 5 C3.35 5 1.7 5 0 5 C0 3.35 0 1.7 0 0 Z " fill="#353535" transform="translate(242,281)"/>
<path d="M0 0 C0.33 0.66 0.66 1.32 1 2 C1.99 2.33 2.98 2.66 4 3 C2.875 4.5 2.875 4.5 1 6 C-2.1875 6.1875 -2.1875 6.1875 -5 6 C-3.35 4.02 -1.7 2.04 0 0 Z " fill="#D6A65F" transform="translate(49,268)"/>
<path d="M0 0 C1.32 0.66 2.64 1.32 4 2 C3.34 3.32 2.68 4.64 2 6 C0.02 6 -1.96 6 -4 6 C-4 5.34 -4 4.68 -4 4 C-2.35 4 -0.7 4 1 4 C0.67 2.68 0.34 1.36 0 0 Z " fill="#EEEEEE" transform="translate(228,283)"/>
<path d="M0 0 C2 3 2 3 2 5 C2.66 5.33 3.32 5.66 4 6 C3.01 7.485 3.01 7.485 2 9 C0.68 9 -0.64 9 -2 9 C-2 8.01 -2 7.02 -2 6 C-1.01 6 -0.02 6 1 6 C0.67 4.02 0.34 2.04 0 0 Z " fill="#B5B5B5" transform="translate(189,285)"/>
<path d="M0 0 C1.2065625 0.0309375 1.2065625 0.0309375 2.4375 0.0625 C2.1075 1.7125 1.7775 3.3625 1.4375 5.0625 C0.4475 5.0625 -0.5425 5.0625 -1.5625 5.0625 C-2.2225 3.7425 -2.8825 2.4225 -3.5625 1.0625 C-2.5625 0.0625 -2.5625 0.0625 0 0 Z " fill="#909090" transform="translate(352.5625,281.9375)"/>
<path d="M0 0 C0 0.66 0 1.32 0 2 C-0.66 2 -1.32 2 -2 2 C-2 2.66 -2 3.32 -2 4 C-3.32 4 -4.64 4 -6 4 C-6 2.68 -6 1.36 -6 0 C-3.50907189 -1.24546405 -2.58919267 -0.7767578 0 0 Z " fill="#505050" transform="translate(381,273)"/>
<path d="M0 0 C1.32 0 2.64 0 4 0 C4.33 1.65 4.66 3.3 5 5 C2.69 5 0.38 5 -2 5 C-1.34 4.67 -0.68 4.34 0 4 C0 2.68 0 1.36 0 0 Z " fill="#959595" transform="translate(443,284)"/>
<path d="M0 0 C2.31 0 4.62 0 7 0 C7 1.65 7 3.3 7 5 C4.0625 4.1875 4.0625 4.1875 1 3 C0.67 2.01 0.34 1.02 0 0 Z " fill="#383838" transform="translate(464,284)"/>
<path d="M0 0 C2.97 0.495 2.97 0.495 6 1 C6 1.66 6 2.32 6 3 C3.69 3.33 1.38 3.66 -1 4 C-0.67 2.68 -0.34 1.36 0 0 Z " fill="#AAAAAA" transform="translate(318,284)"/>
<path d="M0 0 C3.36720387 1.39332574 4.9859524 2.9789286 7 6 C6.01 6.495 6.01 6.495 5 7 C4.67 6.34 4.34 5.68 4 5 C2.02111039 4.27306096 0.02045442 3.60183749 -2 3 C-1.34 2.01 -0.68 1.02 0 0 Z " fill="#44290F" transform="translate(65,208)"/>
<path d="M0 0 C1.485 0.99 1.485 0.99 3 2 C3 2.66 3 3.32 3 4 C4.65 4 6.3 4 8 4 C7.67 4.66 7.34 5.32 7 6 C4.625 6.125 4.625 6.125 2 6 C1.34 5.34 0.68 4.68 0 4 C0 2.68 0 1.36 0 0 Z " fill="#EEEEEE" transform="translate(462,283)"/>
<path d="M0 0 C0.99 0 1.98 0 3 0 C3.66 1.98 4.32 3.96 5 6 C4.34 6 3.68 6 3 6 C2.67 6.66 2.34 7.32 2 8 C1.34 5.36 0.68 2.72 0 0 Z " fill="#CFCFCF" transform="translate(410,278)"/>
<path d="M0 0 C0.66 0 1.32 0 2 0 C2 1.98 2 3.96 2 6 C2.99 6 3.98 6 5 6 C5 6.66 5 7.32 5 8 C3.35 7.67 1.7 7.34 0 7 C0 4.69 0 2.38 0 0 Z " fill="#F5F5F5" transform="translate(180,281)"/>
<path d="M0 0 C0 0.66 0 1.32 0 2 C-0.78375 2.0825 -1.5675 2.165 -2.375 2.25 C-5.14749104 2.72806339 -5.14749104 2.72806339 -6.3125 5.0625 C-6.6528125 6.0215625 -6.6528125 6.0215625 -7 7 C-6.74438677 4.6568787 -6.40729228 2.32156597 -6 0 C-3.50907189 -1.24546405 -2.58919267 -0.7767578 0 0 Z " fill="#CBCBCB" transform="translate(246,279)"/>
<path d="M0 0 C2.475 0.495 2.475 0.495 5 1 C5 2.98 5 4.96 5 7 C4.01 7.495 4.01 7.495 3 8 C2.87625 7.195625 2.7525 6.39125 2.625 5.5625 C2.315625 4.2940625 2.315625 4.2940625 2 3 C1.34 2.67 0.68 2.34 0 2 C0 1.34 0 0.68 0 0 Z " fill="#EFEFEF" transform="translate(204,278)"/>
<path d="M0 0 C0.33 0.66 0.66 1.32 1 2 C1.66 2 2.32 2 3 2 C3.33 3.98 3.66 5.96 4 8 C3.01 8 2.02 8 1 8 C-1.125 3.375 -1.125 3.375 0 0 Z " fill="#7A7A7A" transform="translate(150,275)"/>
<path d="M0 0 C2.31 1.98 4.62 3.96 7 6 C5.68 6.33 4.36 6.66 3 7 C0.25 4.5625 0.25 4.5625 -2 2 C-1.34 2 -0.68 2 0 2 C0 1.34 0 0.68 0 0 Z " fill="#392617" transform="translate(58,240)"/>
<path d="M0 0 C3.16115776 1.36983503 3.9927092 1.9890638 6 5 C2.25 6.125 2.25 6.125 0 5 C0 3.35 0 1.7 0 0 Z " fill="#161717" transform="translate(90,234)"/>
<path d="M0 0 C4 4.625 4 4.625 4 8 C2.68 8 1.36 8 0 8 C0 5.36 0 2.72 0 0 Z " fill="#252525" transform="translate(385,224)"/>
<path d="M0 0 C0.99 0.33 1.98 0.66 3 1 C4.1875 4.5625 4.1875 4.5625 5 8 C3.02 6.35 1.04 4.7 -1 3 C-0.67 2.01 -0.34 1.02 0 0 Z " fill="#F1BE6C" transform="translate(75,213)"/>
<path d="M0 0 C3.41158256 1.13719419 4.11854601 2.04342944 6 5 C6 5.66 6 6.32 6 7 C4.68 6.67 3.36 6.34 2 6 C2 5.34 2 4.68 2 4 C1.34 4 0.68 4 0 4 C0 2.68 0 1.36 0 0 Z " fill="#7F7F7F" transform="translate(321,277)"/>
<path d="M0 0 C2.64 0 5.28 0 8 0 C4.25 2 4.25 2 2 2 C2.66 3.32 3.32 4.64 4 6 C2.68 5.34 1.36 4.68 0 4 C0 2.68 0 1.36 0 0 Z " fill="#515151" transform="translate(264,229)"/>
<path d="M0 0 C0.66 0 1.32 0 2 0 C2.625 2.375 2.625 2.375 3 5 C2.34 5.66 1.68 6.32 1 7 C-0.5 5.625 -0.5 5.625 -2 4 C-2 3.34 -2 2.68 -2 2 C-1.34 2 -0.68 2 0 2 C0 1.34 0 0.68 0 0 Z " fill="#CEA05B" transform="translate(45,222)"/>
<path d="M0 0 C1.32 0.33 2.64 0.66 4 1 C3.34 1 2.68 1 2 1 C2 1.99 2 2.98 2 4 C2.99 4.33 3.98 4.66 5 5 C3.35 5.33 1.7 5.66 0 6 C0 4.02 0 2.04 0 0 Z " fill="#F0F0F0" transform="translate(390,283)"/>
<path d="M0 0 C2.97 0.495 2.97 0.495 6 1 C6 1.66 6 2.32 6 3 C4.35 3 2.7 3 1 3 C1 3.66 1 4.32 1 5 C0.34 5 -0.32 5 -1 5 C-0.67 3.35 -0.34 1.7 0 0 Z " fill="#FBFBFB" transform="translate(213,281)"/>
<path d="M0 0 C0.99 0 1.98 0 3 0 C3.33 1.65 3.66 3.3 4 5 C3.34 5 2.68 5 2 5 C1.67 5.66 1.34 6.32 1 7 C0.67 4.69 0.34 2.38 0 0 Z " fill="#C7C7C7" transform="translate(187,278)"/>
<path d="M0 0 C2.31 0 4.62 0 7 0 C7.33 0.66 7.66 1.32 8 2 C7.34 2 6.68 2 6 2 C5.67 2.66 5.34 3.32 5 4 C5 3.34 5 2.68 5 2 C3.35 2.33 1.7 2.66 0 3 C0 2.01 0 1.02 0 0 Z " fill="#CCCCCC" transform="translate(441,278)"/>
<path d="M0 0 C0 3 0 3 -1.75 5.25 C-4 7 -4 7 -6.25 6.75 C-6.8275 6.5025 -7.405 6.255 -8 6 C-5.38485683 3.87961365 -2.80362384 1.86908256 0 0 Z " fill="#231208" transform="translate(88,277)"/>
<path d="M0 0 C0.99 0.33 1.98 0.66 3 1 C3 2.98 3 4.96 3 7 C2.34 7 1.68 7 1 7 C0.67 4.69 0.34 2.38 0 0 Z " fill="#070707" transform="translate(190,276)"/>
<path d="M0 0 C1.32 0.33 2.64 0.66 4 1 C4 2.98 4 4.96 4 7 C2 5.75 2 5.75 0 4 C0 2.68 0 1.36 0 0 Z " fill="#EAB767" transform="translate(71,259)"/>
<path d="M0 0 C0.8971875 0.309375 0.8971875 0.309375 1.8125 0.625 C0.5 2.125 0.5 2.125 -1.1875 3.625 C-3.85416667 3.625 -6.52083333 3.625 -9.1875 3.625 C-8.2903125 3.191875 -8.2903125 3.191875 -7.375 2.75 C-1.52083333 -0.26071429 -1.52083333 -0.26071429 0 0 Z " fill="#373737" transform="translate(278.1875,251.375)"/>
<path d="M0 0 C0.33 0.99 0.66 1.98 1 3 C1.99 3.33 2.98 3.66 4 4 C3.01 4.33 2.02 4.66 1 5 C-0.66710346 6.49985609 -0.66710346 6.49985609 -2 8 C-2.33 6.68 -2.66 5.36 -3 4 C-2.34 4 -1.68 4 -1 4 C-0.67 2.68 -0.34 1.36 0 0 Z " fill="#362A1D" transform="translate(88,224)"/>
<path d="M0 0 C0 2.31 0 4.62 0 7 C-2.5 5.625 -2.5 5.625 -5 4 C-5 3.34 -5 2.68 -5 2 C-2 0 -2 0 0 0 Z " fill="#5E5E5E" transform="translate(232,278)"/>
<path d="M0 0 C0.66 0 1.32 0 2 0 C2 2.97 2 5.94 2 9 C-0.37783838 6.62216162 -0.59009208 5.27926335 -1 2 C-0.67 1.34 -0.34 0.68 0 0 Z " fill="#FDFDFD" transform="translate(447,280)"/>
<path d="M0 0 C0.33 0.99 0.66 1.98 1 3 C0.54625 3.433125 0.0925 3.86625 -0.375 4.3125 C-2.20024334 6.10798342 -2.20024334 6.10798342 -4 9 C-4.8125 7.3125 -4.8125 7.3125 -5 5 C-2.5625 2.25 -2.5625 2.25 0 0 Z " fill="#382A1F" transform="translate(47,267)"/>
<path d="M0 0 C0.99 0.66 1.98 1.32 3 2 C1.1875 3.5625 1.1875 3.5625 -1 5 C-1.99 4.67 -2.98 4.34 -4 4 C-4 3.34 -4 2.68 -4 2 C-2.68 1.34 -1.36 0.68 0 0 Z " fill="#E2B161" transform="translate(68,242)"/>
<path d="M0 0 C2.6875 1.4375 2.6875 1.4375 5 3 C4.67 3.66 4.34 4.32 4 5 C3.01 5 2.02 5 1 5 C0.67 4.01 0.34 3.02 0 2 C-0.99 1.67 -1.98 1.34 -3 1 C-2.01 0.67 -1.02 0.34 0 0 Z " fill="#33261C" transform="translate(43,226)"/>
<path d="M0 0 C1.65 1.65 3.3 3.3 5 5 C4.34 6.32 3.68 7.64 3 9 C2.01 6.03 1.02 3.06 0 0 Z " fill="#DFAD5D" transform="translate(78,215)"/>
<path d="M0 0 C0.99 0.66 1.98 1.32 3 2 C3.1875 4.625 3.1875 4.625 3 7 C1.35 5.35 -0.3 3.7 -2 2 C-1.34 2 -0.68 2 0 2 C0 1.34 0 0.68 0 0 Z " fill="#2D1C0C" transform="translate(69,201)"/>
<path d="M0 0 C1.98 1.65 3.96 3.3 6 5 C3.50907189 6.24546405 2.58919267 5.7767578 0 5 C0 3.35 0 1.7 0 0 Z " fill="#331F0E" transform="translate(56,288)"/>
<path d="M0 0 C0.99 0.33 1.98 0.66 3 1 C3 3.31 3 5.62 3 8 C2.67 7.01 2.34 6.02 2 5 C1.34 5 0.68 5 0 5 C0 3.35 0 1.7 0 0 Z " fill="#161616" transform="translate(183,281)"/>
<path d="M0 0 C1.65 1.65 3.3 3.3 5 5 C3.35 5.33 1.7 5.66 0 6 C-1.125 2.25 -1.125 2.25 0 0 Z " fill="#D4A756" transform="translate(75,261)"/>
</svg>
